<svg id="Слой_1" data-name="Слой 1" xmlns="http://www.w3.org/2000/svg" viewBox="0 0 1920 1080"><defs><style>.cls-1{fill:none;stroke:#fff;stroke-miterlimit:10;}</style></defs><title>Монтажная область 1123</title><path class="cls-1" d="M-38.5,1139.5c182.33-4.22,361.51-47.76,542.82-64,61.15-5.47,121.43-6.5,181.74,6.35,38,8.09,74.43,21.35,111.49,32.7,99.9,30.57,202,24.9,305.28,24.9H1939.5"/><path class="cls-1" d="M-38.5,1119.5c184.23-4,365.12-50,548.23-66.82,60.9-5.6,121.28-7,181.25,6.62,37.1,8.41,72.42,22.38,108.45,34.3,98.7,32.64,200.83,25.9,303.4,25.9H1939.5"/><path class="cls-1" d="M-38.5,1099.5c185.52-3.34,367.59-51.61,551.92-68.77,60.63-5.64,121.31-7.31,181,6.78,36.46,8.61,70.89,23.16,106.13,35.53,97.75,34.29,200.33,26.46,302.33,26.46H1939.5"/><path class="cls-1" d="M-38.5,1079.5c186.12-2.24,368.77-52.57,553.63-69.68,60.37-5.58,121.53-7.48,180.88,6.83,36.07,8.69,69.9,23.67,104.64,36.34,97.13,35.43,200.51,26.47,302.17,26.47l362.36,0q237.15,0,474.32,0"/><path class="cls-1" d="M-38.5,1059.5c185.67-1.55,367.64-53.25,552-70.24,60.52-5.57,121.8-7.31,181.16,7.68,36.7,9.27,71.09,24.94,106.53,37.89,97.21,35.53,199,21,300.45,21.83,121.44,1,242.92,3.24,364.35,4.59,157.84,1.76,315.66-3.94,473.5-1.75"/><path class="cls-1" d="M-38.5,1039.5c184.66-1.13,365.31-54.33,548.59-71.41,60.8-5.67,122.17-7.18,181.66,8.43,37.56,9.86,72.75,26.21,109.14,39.45,97.67,35.53,198.47,15.81,300,18.24,60.19,1.44,120.29,5.3,180.42,8.17,62.32,3,124.42,2.15,186.75,3.19,157.21,2.62,314.24-9.55,471.46-6.07"/><path class="cls-1" d="M-38.5,1019.5c183.15-1,361.93-55.74,543.61-73.12,61.15-5.86,122.6-7.07,182.33,9.1,38.63,10.45,74.85,27.49,112.4,41,98.43,35.44,198.63,11,300.6,15.56,61,2.74,121.81,9.05,182.69,13.9,62.83,5,125.09,5.07,188,6.18,156.3,2.74,312-16.64,468.36-12.63"/><path class="cls-1" d="M-38.5,999.5c181.23-1,357.63-57.46,537.28-75.3,61.59-6.12,123.1-7,183.16,9.7,39.88,11.06,77.31,28.78,116.21,42.59,43.12,15.3,87.43,23.21,133.26,19.72,57.12-4.34,111.31-10.09,168.88-6.05,62,4.35,123.58,13.41,185.31,20.53,63.4,7.31,125.85,9,189.55,9.92,155.2,2.24,309.07-25,464.35-21.11"/><path class="cls-1" d="M-38.5,979.5c179-1.12,352.58-59.42,529.83-77.86,62.09-6.46,123.66-6.87,184.12,10.24,41.27,11.67,80.07,30.08,120.48,44.17,43.92,15.3,89.06,23.06,135.59,18.14,57.53-6.08,110.76-11.45,168.87-5.7,63.15,6.25,125.54,18.27,188.21,27.9,64,9.84,126.69,13.79,191.31,14.31,154,1.22,305.45-34.52,459.59-31.2"/><path class="cls-1" d="M-38.5,959.5C138,958.09,308.42,897.92,483,878.77c62.64-6.87,124.28-6.78,185.19,10.72,42.78,12.29,83.08,31.4,125.12,45.76,44.85,15.33,91,23,138.3,16.58,58-7.86,110.41-12.49,169.1-4.84,129.52,16.87,252.93,55.25,384.59,55.08,152.72-.2,301.24-44.89,454.22-42.57"/><path class="cls-1" d="M-38.5,939.5c173.73-1.79,340.79-63.89,512.47-83.83,63.2-7.34,124.92-6.7,186.32,11.17,44.38,12.92,86.28,32.71,130,47.36,45.86,15.35,93.15,22.92,141.29,15,26.21-4.31,51-10.53,77.8-11.19,30.7-.76,61.45,2.67,91.71,7.61,131.12,21.38,255.53,70.48,390,68.78,151.48-1.92,296.51-55.92,448.39-54.9"/><path class="cls-1" d="M-38.5,919.5c170.9-2.22,334.36-66.31,503-87.08C528.29,824.56,590.1,825.81,652,844c46,13.54,89.59,34,135.14,49,46.94,15.39,95.46,22.92,144.47,13.43,26.2-5.07,50.6-11.59,77.55-12,31.05-.44,62.08,3.94,92.48,9.91,132.32,26,258.54,86.54,395.57,83,150.33-3.84,291.38-67.39,442.27-67.87"/><path class="cls-1" d="M-38.5,899.5c168-2.67,327.76-68.78,493.32-90.41,64.36-8.41,126.29-6.52,188.73,12,47.73,14.17,93,35.33,140.33,50.55,48,15.44,97.88,23,147.76,11.87,26.19-5.82,50.15-12.63,77.32-12.72,31.42-.1,62.76,5.28,93.29,12.29,133,30.56,261.94,103,401.26,97.57,149.3-5.87,285.91-79.09,436-81.16"/><path class="cls-1" d="M-38.5,879.5c165.17-3.12,321.15-71.25,483.64-93.74,64.93-9,127-6.42,189.94,12.42,49.42,14.8,96.35,36.65,145.52,52.15s100.33,23,151,10.31c26.2-6.57,49.68-13.68,77.1-13.46,31.8.25,63.44,6.64,94.09,14.67,70,18.34,136.89,46.73,205,70.83,64.68,22.9,132.54,45,202,41.26,148.45-7.89,280.24-90.77,429.71-94.44"/><path class="cls-1" d="M-38.5,859.5c162.43-3.52,314.68-73.68,474.18-97,65.47-9.57,127.71-6.31,191.14,12.85,51.08,15.42,99.66,38,150.61,53.74,50.23,15.56,102.74,23.12,154.22,8.74,26.2-7.32,49.17-14.75,76.84-14.25,32.19.58,64.13,8,94.88,17,71.4,20.92,139.2,52.53,208.38,79.56,64.36,25.14,133.91,51.46,204.16,46.78,147.81-9.84,274.49-102.24,423.59-107.41"/><path class="cls-1" d="M-38.5,839.5c159.85-3.86,308.49-76,465.17-100.09,66-10.13,128.4-6.17,192.28,13.3C671.62,768.77,721.8,792,774.47,808.05c51.24,15.62,105.07,23.23,157.21,7.17,26.18-8.06,48.59-15.89,76.53-15.15,32.55.86,64.77,9.21,95.59,19.13,72.8,23.41,141.44,58.14,211.68,88,64,27.19,135.25,57.63,206.25,52.05C1669.11,947.64,1790.53,846,1939.5,839.5"/><path class="cls-1" d="M-38.5,819.5c157.52-4.1,302.74-78.2,456.84-103,66.44-10.67,129.06-6,193.33,13.78,54.19,16.69,105.87,40.59,160.17,56.93,52.13,15.68,107.22,23.37,159.91,5.6,26.11-8.81,47.92-17.12,76.12-16.21,32.88,1.05,65.36,10.31,96.23,21,74.11,25.78,143.55,63.47,214.79,96,63.66,29,136.45,63.29,208.21,56.92,147.18-13,263.32-123.58,412.4-131.08"/><path class="cls-1" d="M-38.5,799.5C117,795.27,259.08,719.31,410.9,694c66.82-11.14,129.74-5.9,194.29,14.32,55.55,17.4,108.63,41.9,164.43,58.51,52.92,15.76,109.18,23.53,162.24,4,26-9.56,47.15-18.46,75.59-17.49,33.16,1.14,65.87,11.22,96.74,22.67,75.36,27.94,145.52,68.37,217.7,103.33,63.4,30.72,137.42,68.25,210,61.3,147.22-14.1,258.21-133,407.65-141.15"/><path class="cls-1" d="M-38.5,779.5c153.84-4.2,293.16-81.94,443.09-107.68,67.19-11.53,130.28-5.67,195.12,14.92,56.78,18,111.08,43.19,168.23,60.08,53.54,15.82,110.84,23.7,164.09,2.44,25.81-10.31,46.25-20,74.89-19,33.39,1.08,66.29,11.87,97.12,23.9,76.5,29.86,147.31,72.79,220.31,110,63.32,32.23,138.1,72.32,211.5,65,147.47-14.63,253.64-141.41,403.65-149.61"/><path class="cls-1" d="M-38.5,759.5c152.62-4,289.62-83.39,438.12-109.39,67.53-11.82,130.75-5.39,195.8,15.59,57.82,18.66,113.16,44.49,171.48,61.65,54,15.89,112.17,23.88,165.37.84,25.54-11.06,45.19-21.63,74-20.9,33.52.85,66.58,12.2,97.32,24.68,77.52,31.45,148.86,76.59,222.59,115.67,63.45,33.63,138.39,75.32,212.75,68,147.93-14.54,249.78-148.49,400.56-156.15"/><path class="cls-1" d="M-38.5,739.5C113.4,735.9,248.64,655,396.22,629c67.83-12,131.11-5.09,196.29,16.34,58.66,19.29,114.82,45.77,174.1,63.21,54.17,15.94,113.08,24.06,166-.77,25.18-11.82,44-23.49,72.92-23.14,33.54.4,66.73,12.17,97.32,24.92,78.39,32.67,150.15,79.69,224.46,120.32,63.88,34.93,138.25,77,213.68,70.1,148.59-13.69,246.82-154.06,398.54-160.43"/><path class="cls-1" d="M-38.5,719.5c151.74-3,285.85-85.19,433.12-111.1,68.07-12,131.34-4.73,196.58,17.2,59.24,19.91,116,47,176,64.75,54.14,16,113.55,24.24,165.82-2.39,24.73-12.59,42.54-25.56,71.57-25.81,33.45-.29,66.73,11.71,97.1,24.55,79.1,33.45,151.14,82,225.88,123.78,64.64,36.13,137.64,77.31,214.24,71.17,149.42-12,245-157.92,397.73-162.15"/><path class="cls-1" d="M-38.39,698.41c150.66-6.13,285.74-81.84,432.45-108,68.45-12.21,130.78-5.38,196.71,15.89,59.16,19.09,116.07,44.92,176,61.82,54.37,15.35,113.74,23.45,166.73-1.2,25.11-11.68,43.77-23.09,72.59-22.49,33.66.7,66.9,12.8,97.53,25.76,78.49,33.21,150.36,80.49,225,121.17,63.17,34.41,137.56,76.4,212.14,67.14,147-18.23,247.57-151.57,398.77-159"/><path class="cls-1" d="M-38.09,675.32c149.11-8,285.12-76.23,430.92-101.5,68.67-11.9,130.67-5.6,197.17,14.56,59.31,18,116.67,42.23,176.66,58,55,14.46,114.54,22,168.38-.93,25.41-10.81,44.82-20.93,73.42-19.73,33.68,1.42,66.77,13.4,97.54,26.29,77.6,32.5,149.07,78.13,223.36,117.23,62.06,32.67,136.75,73.72,209.35,62.07,144.66-23.23,251.2-142.57,400.79-151.82"/><path class="cls-1" d="M-37.61,650.47c147.21-8.74,284-68.63,428.65-92,68.74-11.09,131-5.44,197.91,13.22,59.65,16.62,117.65,39,177.93,53.44,55.88,13.35,115.81,20,170.62-1.42,25.64-10,45.72-19.1,74.08-17.49,33.54,1.91,66.43,13.59,97.23,26.22,76.5,31.37,147.35,75,221,112.13,61.3,30.88,135.24,69.49,206,56,142.58-27.11,255.61-131.23,403.66-141.15"/><path class="cls-1" d="M-37,624.12c145.1-8.59,282.58-59.3,425.78-79.83,68.71-9.86,131.58-5,198.85,11.87,60.14,15.06,118.93,35.46,179.64,48.26,57,12,117.43,17.53,173.3-2.58,25.8-9.29,46.48-17.54,74.61-15.68,33.29,2.19,65.9,13.42,96.67,25.64,75.2,29.87,145.28,71.21,218.21,106,60.88,29,133.09,63.91,202.16,49.17,140.9-30.07,260.61-117.85,407.27-127.47"/><path class="cls-1" d="M-36.24,596.52C106.67,588.8,244.53,548,386.19,531c68.61-8.26,132.43-4.26,199.93,10.56,60.73,13.33,120.4,31.5,181.63,42.55,58.22,10.5,119.3,14.72,176.3-4.26,25.9-8.63,47.14-16.2,75-14.24,32.95,2.3,65.24,12.94,95.9,24.61,73.8,28.08,143,66.87,215,99,60.79,27.12,130.45,57.23,198,41.61,139.72-32.31,266-102.74,411.49-111.29"/><path class="cls-1" d="M-35.39,567.91c140.76-6.28,278.69-36.54,418.75-49.54a713.47,713.47,0,0,1,201,9.28c61.39,11.48,122,27.26,183.8,36.47,59.48,8.85,121.31,11.65,179.45-6.33,26-8,47.72-15,75.41-13.12,32.55,2.28,64.5,12.23,95,23.23,72.3,26.05,140.53,62.08,211.55,91.26,61,25.05,127.43,49.64,193.68,33.44,139.08-34,271.57-86.22,416.19-93.1"/><path class="cls-1" d="M-34.47,538.55C104.3,534.1,241.92,514.9,380.4,506.34c68.34-4.23,134.38-2.4,202.14,8,62.07,9.55,123.57,22.83,186,30.13,60.74,7.1,123.34,8.41,182.62-8.67,26-7.49,48.26-14.05,75.75-12.22,32.13,2.14,63.73,11.32,94.09,21.54,70.79,23.85,138,56.94,208,83,61.39,22.82,124.21,41.34,189.26,24.8,139-35.33,277.24-68.62,421.27-73.41"/><path class="cls-1" d="M-33.5,508.68c137.05-2.37,273.92-10.14,410.93-14,68.25-1.92,135.25-1.35,203.14,6.85,62.71,7.58,125,18.34,188,23.66,61.94,5.23,125.25,5.1,185.67-11.14,26-7,48.77-13.15,76.08-11.49,31.71,1.92,63,10.26,93.18,19.64,123.38,38.31,256.71,124.73,389.39,90,139.34-36.45,282.88-50.3,426.59-52.72"/><path class="cls-1" d="M-32.51,478.56c135.71-.16,271.36,3.7,407.06,4.65,68.21.48,135.94-.28,204,5.74,63.28,5.6,126.35,13.81,189.82,17.17,63,3.33,126.95,1.79,188.44-13.62,26.06-6.54,49.29-12.31,76.46-10.87,31.32,1.66,62.28,9.13,92.35,17.6,67.89,19.14,133.31,46,201.19,65.2,30.73,8.68,62.28,16.14,94.23,18.31,30.66,2.09,57.16-3.87,86.46-11.72,140-37.5,288.41-31.58,432-31.52"/><path class="cls-1" d="M-31.51,448.44c134.79,2,268.77,17.56,403.38,23.33,68.2,2.92,136.36.79,204.56,4.71,63.73,3.67,127.37,9.36,191.22,10.81s128.37-1.43,190.81-16c58.82-13.72,109.94-9.52,168.59,5.23,66.6,16.74,131.27,40.47,198.18,56.05,30.22,7,61.19,12.67,92.31,13.06,30.28.38,55.78-7.95,84.49-15.82C1643,491.17,1795.83,517,1939.5,519.5"/><path class="cls-1" d="M-30.54,418.58c134.36,4.08,266.26,31.14,400,41.6C437.69,465.51,506,462,574.33,464c64,1.81,128,5.05,192.08,4.67,64.54-.38,129.41-4.44,192.63-18.1,58.39-12.62,110.32-9.07,168.7,3.76,65.5,14.4,129.59,35,195.64,46.94,29.8,5.4,60.28,9.23,90.61,7.82,29.89-1.39,54.5-12,82.71-19.93,63.15-17.83,130.29-15.85,195.08-10.8,82.68,6.45,164.76,18.4,247.72,21.18"/><path class="cls-1" d="M-29.62,389.2c135.16,5.94,265.33,44.59,399.36,59.29,66.53,7.3,133.16,2.69,200,2.73,66.46,0,132.95,1,199.39-1.25,63.36-2.19,126.78-7.39,189-19.69,58.41-11.54,111.83-8.42,170.34,2.66,63.09,11.94,125.31,28.79,189,37.33,29.72,4,60.14,6.37,90.07,3.44,31.48-3.09,56.84-16.68,86.57-25.07,62.29-17.55,129.38-10.88,192.52-2.17,84.3,11.64,167.63,29,252.84,33"/><path class="cls-1" d="M-28.77,360.58c135.71,7.37,263.24,56.85,397.08,75.55,66.33,9.26,132.7,3.62,199.41,2,66.26-1.58,132.56-2.85,198.75-6.69,63.4-3.68,126.76-9.71,189.32-20.82,58.34-10.36,112.94-7.55,171.42,1.69,62.55,9.89,124.65,23.8,187.87,28.93,29.53,2.39,59.68,3,89-1.59,31.09-4.89,55.81-20.57,85.26-29.27,62.54-18.46,131.11-7,193.69,5.13,85.29,16.51,169.34,38.92,256.43,44"/><path class="cls-1" d="M-28,333c136.71,8.26,261.55,68,395.54,90.11,65.93,10.9,131.92,4.49,198.32,1.47,65.75-3,131.5-6.34,197.12-11.51,63.1-5,126.1-11.62,188.65-21.33,58.52-9.09,114.5-6.34,173.15,1.21,62.35,8,124.6,19.1,187.56,21,29.51.88,59.51-.19,88.46-6.38,30.79-6.58,55-24.12,84.32-33.35,62.64-19.74,132.84-3.54,194.63,11.49,86.09,20.95,170.82,48.13,259.77,53.86"/><path class="cls-1" d="M-27.39,306.6C110.7,315.05,233,384.19,367.49,409.14c65.28,12.11,130.82,5.27,196.62,1.06q97.3-6.24,194.37-15.56,93.6-9,186.87-21.1c59-7.67,116.54-4.69,175.63,1.35,62.52,6.38,125.27,14.82,188.25,13.63,29.65-.56,59.66-3.22,88.39-10.86,30.63-8.14,54.57-27.24,83.81-37.28,62.49-21.46,134.48-.71,195.3,16.72,86.68,24.84,172,56.44,262.77,62.4"/><path class="cls-1" d="M-26.92,281.73C112.91,289.52,233,367.27,368.32,394.16,432.66,407,497.7,400.1,562.57,395c63.56-5,127-11.71,190.34-18.72,61.27-6.77,122.51-13.86,183.86-20,59.89-6,119.09-2.51,179,2.26,63.13,5,126.7,11,190.07,7,30-1.89,60.16-6,88.9-15,30.69-9.54,54.49-29.82,83.79-41,62-23.71,135.94,1.3,195.62,20.57,87.08,28.11,173.08,63.72,265.39,69.35"/><path class="cls-1" d="M-26.61,258.61C115.2,264.71,233.65,350.12,370.12,378c63.07,12.86,127.56,6.47,191.14.75,61.78-5.55,123.31-13.42,184.88-20.84,59.69-7.21,119.46-14,179.47-17.92,61.19-4,122.16.3,183.26,4.08,64.19,4,129,7.82,193.15,1.35,30.5-3.08,61-8.53,90.07-18.59,31-10.77,54.86-31.73,84.3-44.52,61.11-26.55,137.12,2.25,195.56,22.8,87.26,30.69,173.9,69.85,267.55,74.44"/><path class="cls-1" d="M-26.5,237.5c144,3.21,261.5,95.22,399.51,122.83,61.41,12.28,125.33,6.82,187.21.89,59.47-5.7,118.6-14.37,177.86-21.84,57.62-7.26,115.47-13.44,173.57-14.71,62.93-1.36,125.79,3.84,188.6,7,65.74,3.28,132.21,5.28,197.65-3.31,31.24-4.1,62.36-10.71,91.95-21.69,31.75-11.78,55.83-32.85,85.41-47.73,59.73-30,137.89,1.9,195,23.2,87.24,32.51,174.54,74.68,269.19,77.39"/><path class="cls-1" d="M-26.7,218.21C117.3,224,237.4,310.79,376,338.76c115,23.22,240.23-3,355.41-15.55,120.4-13.12,238.33-11.78,359.18-8.28,67.23,1.95,135,2.53,201.81-6.8,32.09-4.48,64-11.33,94.57-22.24,32.39-11.57,58.13-32.25,88.77-46.36,60.85-28,138,2.93,195.89,24.26,86.9,32,173.79,73.06,267.89,75.71"/><path class="cls-1" d="M-27.28,200.27c143.51,7.44,266.19,87.85,405,115.15,113,22.22,235-.17,348.54-10.13,119.25-10.46,237.44-9.49,357-8.12,68.3.79,137.07.14,204.78-9.72,32.73-4.77,65.28-11.75,96.6-22.49,32.87-11.28,60.06-31.48,91.59-44.68,62-25.95,138,3.95,196.75,25.28,86.55,31.43,173,71.34,266.53,73.94"/><path class="cls-1" d="M-28.19,183.52c141.87,8,266.43,80.48,404.24,106.6,111.27,21.09,230.47,3.06,342.59-4.09,119.49-7.63,238.7-7.15,358.37-7.51,70.69-.21,141.8-1.91,211.77-12.76,32.91-5.1,65.62-12.28,97.21-22.92,31.3-10.54,58.2-28.48,88.42-40.71,63.88-25.85,140.74,4,201.39,25.78,85.68,30.75,171.31,69.08,263.7,71.59"/><path class="cls-1" d="M-29.38,167.78c140.73,7.94,267.54,72.46,405,96.19,110.9,19.13,228.61,5.21,340.48,1,119.19-4.44,238.41-4.11,357.65-5.93,71-1.09,142.43-3.72,212.73-14.76,33.19-5.21,66.18-12.34,98.19-22.63,31.55-10.14,59.42-27.46,90.2-38.7,64.93-23.71,140.83,5.06,202.28,26.78,85.32,30.16,170.53,67.31,262.32,69.73"/><path class="cls-1" d="M-30.81,152.88c139.42,7.21,268.23,63.13,405.2,83.85,111.28,16.83,228.09,7.12,340.32,6.05,119.22-1.14,238.34-.8,357.55-3.86,71.1-1.83,142.46-5.26,212.81-16.35,33.33-5.26,66.46-12.26,98.74-22.13,31.7-9.69,60.39-26.31,91.61-36.53,65.91-21.6,140.91,6.12,203.15,27.76,85,29.55,169.74,65.5,260.93,67.83"/><path class="cls-1" d="M-32.43,138.66c138,6,268.53,52.73,404.84,70,112.35,14.2,228.69,8.83,341.82,10.92,119.54,2.21,238.47,2.72,358-1.4,70.9-2.45,142-6.56,212.13-17.59,33.33-5.24,66.49-12.06,98.91-21.45,31.77-9.21,61.16-25,92.67-34.2,66.84-19.52,141,7.16,204,28.71,84.58,28.93,169,63.68,259.53,65.9"/><path class="cls-1" d="M-34.2,125c136.64,4.44,268.47,41.5,404,54.88,114,11.26,230.24,10.36,344.73,15.62,120.08,5.52,238.75,6.41,358.91,1.34,70.47-3,141-7.66,210.8-18.51A903,903,0,0,0,1383,157.65c31.79-8.68,61.75-23.56,93.46-31.74,67.68-17.46,141.14,8.22,204.89,29.64,84.21,28.3,168.17,61.84,258.13,63.95"/><path class="cls-1" d="M-36.06,111.57c135.34,2.67,268.08,29.71,402.84,39,116.15,8,232.59,11.75,348.8,20.14,55.75,4,111.54,7.79,167.41,9.84,63.89,2.34,128.91-2.46,192.76-5.57,69.85-3.41,139.76-8.59,208.93-19.2,33-5.07,65.94-11.39,98.33-19.68,31.76-8.12,62.19-22,94-29.18,68.46-15.43,141.28,9.29,205.75,30.56,83.83,27.66,167.38,60,256.72,62"/><path class="cls-1" d="M-38,98.37c134.2.8,267.37,17.61,401.36,22.77,118.55,4.55,235.62,13,353.74,24.45,56.72,5.49,113.5,10.61,170.44,13.15,63.33,2.83,128-2.41,191.27-5.88,69.09-3.79,138.19-9.39,206.64-19.69,32.79-4.93,65.44-10.94,97.7-18.62,31.7-7.55,62.5-20.34,94.39-26.53,69.18-13.45,141.44,10.36,206.61,31.46,83.44,27,166.59,58.14,255.31,60"/><path class="cls-1" d="M-39.87,85.17c133.28-1.06,266.42,5.48,399.68,6.48,121.05.9,239.2,14.2,359.31,28.54,57.79,6.9,115.71,13.34,173.87,16.33,62.71,3.23,126.93-2.31,189.55-6.08,68.23-4.12,136.41-10.1,204-20,32.48-4.77,64.84-10.45,96.9-17.5,31.65-7,62.74-18.57,94.64-23.82,69.83-11.49,141.63,11.47,207.47,32.38,83.06,26.37,165.81,56.28,253.9,58"/><path class="cls-1" d="M-41.73,71.81C90.9,69,223.51,65.37,356.14,62.35c123.5-2.83,243.22,15.33,365.24,32.39,58.94,8.24,118.07,15.94,177.52,19.33,62.08,3.53,125.74-2.18,187.71-6.24,67.29-4.41,134.5-10.75,201.26-20.29,32.14-4.59,64.18-9.94,96-16.34,31.58-6.35,62.92-16.74,94.8-21.07,70.41-9.58,141.85,12.6,208.32,33.29,82.67,25.74,165,54.43,252.5,56.08"/><path class="cls-1" d="M-43.5,58.11C89.91,53.76,222.71,40,356,33.27,482.72,26.85,605.79,50.9,730.51,70.49c57.91,9.09,116.08,17.48,174.63,21,61.1,3.69,123.71-2,184.68-6.31,65.93-4.65,131.74-11.26,197.21-20.29,63.41-8.75,126-25.78,189.34-33.49,72.18-8.8,145.18,13.53,213.41,34.37,81.81,25,163.36,52.18,249.72,53.71"/><path class="cls-1" d="M-45.13,43.92C88.2,38.37,219.64,15,352.55,4.91c128.74-9.79,254.29,18.9,380.53,40.73,59,10.2,118.3,19.62,178.1,23.35,60.5,3.79,122.45-1.9,182.79-6.49q97.47-7.43,194.39-20.55c62.76-8.41,125.54-23.72,188.48-29.62,72.73-6.82,145.45,14.78,214.33,35.38,81.42,24.35,162.58,50.36,248.33,51.79"/><path class="cls-1" d="M-46.57,29.05c133.5-6.28,263.31-38.68,396-51.67C479.91-35.39,608-2.5,735.53,21.3c60,11.2,120.35,21.54,181.29,25.37,60,3.76,121.24-1.88,181-6.79,64.08-5.27,128-12.58,191.71-20.88,62.27-8.11,125.14-21.64,187.77-25.82C1550.52-11.7,1623,9.24,1692.55,29.6c81,23.72,161.81,48.55,247,49.9"/><path class="cls-1" d="M-47.77,13.34C86.12,6.91,214.14-33.82,346.76-49.09c132-15.18,262.37,21.27,391,46.76,60.79,12.06,122.11,23.22,184.06,27,59.49,3.63,120.14-2,179.38-7.23,63.26-5.63,126.3-13.34,189.29-21.33,62-7.86,124.87-19.61,187.3-22.13,158.46-6.38,303.47,83.14,461.76,85.53"/><path class="cls-1" d="M-48.69-3.38C85.76-9.23,212-57.47,344.68-74.28,477.82-91.15,610.11-52,739.48-25.06,800.91-12.29,863-.45,925.72,3.13c59.13,3.36,119.19-2.22,178-7.89,124.22-12,249.5-38.73,374.42-40.56,158.28-2.33,303,82.52,461.35,84.82"/><path class="cls-1" d="M-49.29-21.27C85.86-25.69,210.39-80.49,343.3-98,477.4-115.64,610.77-74.74,740.72-46.7,802.52-33.37,865.09-21,928.37-17.8c58.88,3,118.45-2.64,177-8.8C1229-39.6,1353.89-66,1478.54-64.72c157.93,1.59,302.73,82,461,84.22"/></svg>