<svg id="Слой_1" data-name="Слой 1" xmlns="http://www.w3.org/2000/svg" viewBox="0 0 1920 1080"><defs><style>.cls-1{fill:#000a15;}.cls-2{fill:#2738ff;}.cls-3{fill:#2b43ff;}.cls-4{fill:#2f4fff;}.cls-5{fill:#345aff;}.cls-6{fill:#3865ff;}.cls-7{fill:#3c70ff;}.cls-8{fill:#407cff;}.cls-9{fill:#4487ff;}.cls-10{fill:#4892ff;}.cls-11{fill:#4d9dff;}.cls-12{fill:#51a9ff;}.cls-13{fill:#55b4ff;}</style></defs><title>Монтажная область 1123</title><rect class="cls-1" width="1920" height="1080"/><path class="cls-2" d="M385.58,532.41q24.38-31.74,48.66-63.58c10.23-14.14,25.91-26.64,43.53-28.78,9.15-1.11,21.15,2.35,28.59,7.82A40.57,40.57,0,0,1,519.59,462a51.58,51.58,0,0,1,6.83,25c.19,8.93-3.74,20.51-9.82,27.3q-40.92,48.11-81.51,96.51v98c0,13.55-5.45,26.46-14.09,36.65a53.2,53.2,0,0,1-35,18.68,44.75,44.75,0,0,1-35-11.53,46.31,46.31,0,0,1-14.51-34.43v-98Q295.19,578.41,255,535.63c-6.41-6.39-10.05-18.11-9.82-26.8a64.07,64.07,0,0,1,1.28-12.58q1.29-5.31,6-13.66a47,47,0,0,1,12.8-14.46c9-5.72,18-11.38,29-11.63,18.16-.41,30.87,9.35,43.11,21.54Q361.36,505.33,385.58,532.41Z"/><path class="cls-2" d="M558,486.73c6.27-15.76,15.94-31.22,29.66-41.53,12.67-9.53,28.61-15.61,44.6-15.45,15.57.16,31.92,4.41,44.6,13.85a88.48,88.48,0,0,1,29.66,40l73.4,188q5.55,15.38,5.55,26.06a45.13,45.13,0,0,1-7.68,25.65c-4.86,7.23-14.33,14-22.19,17.09a59,59,0,0,1-20.49,4.27c-9,.18-20.65-3.85-27.74-9.17-8.71-6.54-13.84-15.94-18.35-25.82l-4.7-14.08c-34.6,0-69.13,0-103.7,1.75-2,5.74-3.08,8.62-5.12,14.37a63.44,63.44,0,0,1-18.57,26.81c-7.08,6-18.62,11-27.95,11.59a50.88,50.88,0,0,1-20.06-2.46c-17.64-5.56-30.32-21.11-29.88-39.79.17-7,1.86-16,5.55-26.63Q521.15,583.93,558,486.73Zm74.26,42q-11.55,41.21-23,82.42c15.37-.4,30.72-.51,46.09-.51Q643.78,569.71,632.26,528.76Z"/><path class="cls-2" d="M791,478.3a47.48,47.48,0,0,1,14.51-34.52A51,51,0,0,1,841,429.71a48.27,48.27,0,0,1,34.57,14.51,49.83,49.83,0,0,1,14.08,35v61l86.64-94.63a57.83,57.83,0,0,1,14.51-11.18,35.7,35.7,0,0,1,9.81-3.43,57.63,57.63,0,0,1,11.1-1.3c8.64-.14,19.69,3.24,26.89,7.73,7.36,4.59,15.08,13.8,18.35,21.89a57.86,57.86,0,0,1,4.27,21c.09,11.65-3.49,23.7-12.38,31.76l-67.43,64.39,77.24,86c8.12,8.88,12.2,20.77,12.38,32.51.23,14.72-7.1,29-18.78,38.09a48,48,0,0,1-18.78,9c-2.28.28-4.5.86-6.4,1.28a35.61,35.61,0,0,1-6.4.43,46.75,46.75,0,0,1-36.28-16.27L889.17,612v82.1a49.73,49.73,0,0,1-14.29,35.31,48.28,48.28,0,0,1-69.36-.46A50.59,50.59,0,0,1,791,693.53Z"/><path class="cls-2" d="M1082.08,657.61c6.55-10.67,17.59-18,30.3-17.92h6.83a58.34,58.34,0,0,1,8.11,1.7l18.77,5.13,17.08,4.26,12.37,3,4.7,1.28,7.25,1.28a125.2,125.2,0,0,0,15.37,1.28,36.61,36.61,0,0,0,6.82-.64,41.36,41.36,0,0,0,4.7-1.06q7.68-2.56,10.88-5.34a8.91,8.91,0,0,0,3.2-7q0-3.84-4.26-6.83l-3.42-1.28-8.11-2.56-5.55-1.71-22.61-5.55-4.27-.85-28.17-8.11a221.89,221.89,0,0,1-21.55-7.25,108.74,108.74,0,0,1-17.71-9A73.35,73.35,0,0,1,1085.92,572c-6.28-11.85-9.81-25.6-9.39-38.62.38-11.76,2.06-22.52,6.19-33.08,4.43-11.33,11.13-21,19.42-30.51,9.43-10.87,22.36-18.62,35.21-25,14.92-7.38,32.33-12,49.29-13.87a172.61,172.61,0,0,1,69.14,5.55c11.84,3.47,24.32,7.93,34.57,15.58a43.69,43.69,0,0,1,15.79,22.4,39.27,39.27,0,0,1,1.7,9.18q.44,5.34.43,5.76,0,13.23-6.83,22.62A39.62,39.62,0,0,1,1268.15,530a96,96,0,0,1-26.46-4.26l-3.41-1.28-12.38-3.84-5.12-1.28-12-3-6-1.28-4.27-.86-5.55-.42q-11.52,0-15.79,3.41t-4.27,7.26a6.12,6.12,0,0,0,2.56,4.69l6.83,3,8.11,2.13,3,.86,8.53,2.13,14.09,3.41,28.16,7.69a206.25,206.25,0,0,1,37.13,14.08c13.93,7.09,27.44,18.15,35,31.8A94.82,94.82,0,0,1,1328.76,638c.44,10.06-2,22.27-5.55,31.8-4.11,11.12-11.08,20.68-18.35,30.08a110.83,110.83,0,0,1-50.36,33.08c-24.61,7.76-51.12,10.14-76.4,10-14.57-.07-29.89-.91-44-4.91-10.61-3-21.69-6.6-31.15-12.59-8.16-5.16-17-10.74-22.19-19.42q-6-10-6-25A42.2,42.2,0,0,1,1082.08,657.61Z"/><path class="cls-2" d="M1345.4,482.21a48.14,48.14,0,0,1,49.51-49.51c39.5,0,78.12.88,117.36,5.92,11.51,1.59,21.62,8.16,29,16.84a53.21,53.21,0,0,1,12.38,32.47c.27,9.44-5.3,22-12.38,28.13s-20.26,10.15-29.87,8.23c-22.46-2.86-44.81-4.84-67.43-5.67v26c18.59.67,37,2.09,55.48,4.14,12.83,1.53,24.31,8.62,32.86,17.85a48.4,48.4,0,0,1,12.8,30.73c.29,9.4-5.34,22.48-13.23,27.25-10.91,6.6-18.52,8-32,7.87-18.63-2.07-37.17-3.51-55.9-4.19v26.46c21.46.77,42.69,2.58,64,5.21,12.73,1.64,24.28,8.21,32.86,17.55a51.85,51.85,0,0,1,13.66,32.9c.3,9.48-5.76,21.77-13.44,27.31a44.13,44.13,0,0,1-31.8,7.76c-38.36-4.75-76.2-5.52-114.8-5.52-8.74.29-19.58-3.74-26.46-8.53-7.4-5.16-15.32-14.4-18.78-23.05a47.2,47.2,0,0,1-3.84-18.78Z"/><path class="cls-2" d="M1572,500.47c1-13.31,2.43-26.44,13.23-35.47,10-8.39,24.32-9,36.71-6.08,31.09,6.59,62.17,13.13,93.46,18.7,25.75,4.4,51.57,13,72.34,29.25a102.15,102.15,0,0,1,36.49,57.73,125.41,125.41,0,0,1,3.42,27.33,93.22,93.22,0,0,1-7.47,37.49,77,77,0,0,1-21.56,28.63l-1.7,1.6c-3.93,2.83-5.89,4.23-9.82,7-2.39,1.69-3.58,2.52-6,4.19q17.91,25.1,36.27,49.85c6,9.64,10.67,19.48,10.67,30.85,0,15.25-8.14,30.39-20.86,39.24-7.44,5.48-19.47,8.48-28.51,7.45-20.16-2.31-33.72-17.5-44.69-33.33Q1702,712.39,1670.6,659.46v72.63c.2,12.22-4.44,24.22-14.14,31.91-9.93,7.86-23.1,9.42-35.15,6.76-13.63-3-25.84-11.1-34.72-21.76S1572,724.75,1572,710.59Zm157.06,81.42a20.58,20.58,0,0,0-4.7-12.71,18.54,18.54,0,0,0-11.09-6.57q-21.39-3.84-42.68-8.14v36.71c13.64,2.73,27.28,5.41,41,7.83q8.1,1.43,13.23-3.51C1728.22,592.22,1729.34,587.41,1729.07,581.89Z"/><path class="cls-3" d="M369.91,519q24.38-31.53,48.66-63.13c10.35-14,25.91-26.43,43.53-28.37,9.17-1,21.17,2.55,28.59,8.08a41,41,0,0,1,13.23,14.23,51.93,51.93,0,0,1,6.83,25c.19,8.9-3.73,20.46-9.81,27.22Q460,549.79,419.42,597.79v98c0,13.5-5.43,26.38-14.08,36.51a52.76,52.76,0,0,1-35,18.36,45.15,45.15,0,0,1-35-11.82,46.67,46.67,0,0,1-14.51-34.54v-98q-41.26-41.92-81.51-84.83c-6.4-6.39-10-18.11-9.82-26.8a64,64,0,0,1,1.28-12.58q1.29-5.32,6-13.66A46.78,46.78,0,0,1,249.56,454c9-5.7,18-11.34,29-11.54,18.19-.34,30.9,9.53,43.11,21.78Q345.71,491.7,369.91,519Z"/><path class="cls-3" d="M616.59,517.14Q605,558.32,593.54,599.51c15.37-.36,30.72-.47,46.1-.45Q628.12,558.1,616.59,517.14Zm-74.26-42.32c6.27-15.71,15.94-31.12,29.66-41.37,12.69-9.48,28.63-15.49,44.6-15.32,15.58.17,31.93,4.43,44.6,13.91a88.83,88.83,0,0,1,29.66,40.09q36.72,94.27,73.4,188.57,5.55,15.43,5.55,26.11a44.64,44.64,0,0,1-7.68,25.58c-4.88,7.2-14.17,13.76-22.19,16.91a58.79,58.79,0,0,1-20.49,4.12c-9,.11-20.65-4-27.74-9.35-8.68-6.57-13.92-16-18.35-25.91-1.88-5.64-2.82-8.46-4.69-14.1C634.05,684,599.52,684,565,685.57c-2.05,5.73-3.07,8.6-5.12,14.34a63,63,0,0,1-18.57,26.71c-7.09,6-18.64,10.82-28,11.39a51,51,0,0,1-20.06-2.63c-17.67-5.74-30.29-21.27-29.87-40,.15-7,1.85-16,5.54-26.59Q505.49,571.74,542.33,474.82Z"/><path class="cls-3" d="M775.35,467.5a47,47,0,0,1,14.51-34.39,50.54,50.54,0,0,1,35.42-13.72,48.76,48.76,0,0,1,34.57,14.83,50.25,50.25,0,0,1,14.08,35.13v61q43.35-47,86.64-94a57.42,57.42,0,0,1,14.51-11.12,35.75,35.75,0,0,1,9.81-3.4,56.7,56.7,0,0,1,11.1-1.26c8.64-.13,19.68,3.26,26.89,7.75,7.37,4.6,15.08,13.82,18.35,21.92a57.7,57.7,0,0,1,4.27,21c.09,11.65-3.49,23.69-12.38,31.74q-33.69,32.16-67.43,64.25,38.58,43.13,77.25,86.16c8.11,8.9,12.19,20.8,12.37,32.55.24,14.7-7.09,29-18.77,38a48,48,0,0,1-18.78,9c-2.28.29-4.51.86-6.4,1.28a35.85,35.85,0,0,1-6.41.42,46.77,46.77,0,0,1-36.27-16.38Q921,660.26,873.51,602.07v82.11a49.22,49.22,0,0,1-14.3,35.17,48.5,48.5,0,0,1-34.78,14.14,49.08,49.08,0,0,1-34.57-15.25,51,51,0,0,1-14.51-35.51Z"/><path class="cls-3" d="M1066.41,648.63c6.56-10.66,17.61-17.91,30.3-17.78,2.27,0,4.55,0,6.83,0a56.58,56.58,0,0,1,8.11,1.76l18.78,5.26,17.07,4.4,12.37,3.1,4.7,1.32,7.25,1.34a127.25,127.25,0,0,0,15.37,1.43,37.58,37.58,0,0,0,6.83-.58,41.83,41.83,0,0,0,4.69-1q7.68-2.49,10.88-5.23a8.84,8.84,0,0,0,3.2-7c0-2.57-1.42-4.85-4.26-6.87l-3.42-1.32-8.11-2.63-5.54-1.77-22.62-5.75-4.27-.89-28.17-8.35a225.59,225.59,0,0,1-21.55-7.42,109.07,109.07,0,0,1-17.71-9.08,74.12,74.12,0,0,1-26.89-28.51c-6.27-11.88-9.81-25.63-9.39-38.66.37-11.69,2-22.53,6.19-33.06,4.49-11.34,11.12-20.91,19.42-30.42,9.44-10.83,22.37-18.49,35.21-24.74,14.94-7.28,32.35-11.71,49.29-13.46a172.9,172.9,0,0,1,22.62-1.07,178.61,178.61,0,0,1,46.52,7.27c11.86,3.58,24.32,8.19,34.57,15.9a44.25,44.25,0,0,1,15.79,22.54,39.86,39.86,0,0,1,1.71,9.19q.42,5.34.42,5.76,0,13.25-6.83,22.57a39.24,39.24,0,0,1-33.28,17.62A96.7,96.7,0,0,1,1226,518l-3.42-1.31-12.38-4-5.12-1.33-11.95-3.1-6-1.34-4.27-.89-5.55-.48q-11.52-.1-15.79,3.27c-2.85,2.26-4.27,4.66-4.27,7.22a6.19,6.19,0,0,0,2.56,4.72l6.83,3,8.11,2.21,3,.88,8.53,2.22,14.09,3.54,28.17,8a208.5,208.5,0,0,1,37.13,14.43c13.93,7.22,27.43,18.38,35,32.09A95.44,95.44,0,0,1,1313.09,631c.44,10-2,22.24-5.55,31.75-4.11,11.08-11.07,20.59-18.35,29.94a109.42,109.42,0,0,1-50.36,32.62c-24.64,7.53-51.15,9.64-76.39,9.3-14.59-.19-29.91-1.17-44-5.26-10.62-3.09-21.7-6.75-31.16-12.79-8.16-5.2-17-10.82-22.19-19.52q-6-10-6-25A42.06,42.06,0,0,1,1066.41,648.63Z"/><path class="cls-3" d="M1329.73,475.36a47.88,47.88,0,0,1,49.51-49.26c39.46.11,78.14.86,117.36,5.45,11.37,1.4,21.69,7.91,29,16.43A52.35,52.35,0,0,1,1538,480.25c.25,9.61-5.23,22.05-12.38,28.34s-20.1,10.39-29.87,8.64c-22.46-2.6-44.82-4.4-67.43-5.15v26c18.58.61,37,1.91,55.48,3.76,12.78,1.39,24.28,8.31,32.86,17.44a47.44,47.44,0,0,1,12.8,30.53c.26,9.57-5.29,22.46-13.23,27.45-10.69,6.73-18.67,8.36-32,8.28-18.62-1.88-37.18-3.19-55.9-3.81v26.46c21.45.7,42.69,2.35,64,4.74a54,54,0,0,1,32.87,17.1,50.86,50.86,0,0,1,13.65,32.68c.27,9.65-5.71,21.79-13.44,27.53a44.33,44.33,0,0,1-31.8,8.2c-38.35-4.33-76.23-5-114.8-5.09-8.75.26-19.58-3.82-26.46-8.65-7.4-5.2-15.32-14.47-18.78-23.15a47.41,47.41,0,0,1-3.84-18.81Z"/><path class="cls-3" d="M1713.4,571.07a20.33,20.33,0,0,0-4.69-12.64,18.24,18.24,0,0,0-11.1-6.41q-21.39-3.48-42.68-7.39v36.7c13.64,2.49,27.28,4.93,41,7.13q8.1,1.29,13.23-3.72C1712.55,581.41,1713.67,576.58,1713.4,571.07Zm-157.05-78.59c1-13.38,2.47-26.52,13.23-35.71,10-8.51,24.21-9.43,36.7-6.77,31.1,6,62.18,11.94,93.46,17,25.75,4.07,51.51,12.2,72.34,28.38A101.38,101.38,0,0,1,1808.57,553a124.8,124.8,0,0,1,3.42,27.33,93.19,93.19,0,0,1-7.47,37.49A77.49,77.49,0,0,1,1783,646.51l-1.71,1.61c-3.93,2.86-5.89,4.27-9.82,7.06-2.39,1.71-3.58,2.55-6,4.24q17.92,25,36.27,49.67c6,9.46,10.67,19.6,10.67,30.83,0,15.27-8.16,30.4-20.86,39.28-7.44,5.5-19.44,8.58-28.51,7.62-20-2.12-33.83-17.05-44.69-32.81q-32-52-63.42-104.39v72.63c.19,12.29-4.49,24.34-14.14,32.17-9.87,8-23,9.85-35.15,7.43-13.57-2.73-25.81-10.58-34.72-21.1s-14.61-24.06-14.57-38.15Z"/><path class="cls-4" d="M354.25,505.58q24.36-31.31,48.65-62.67c10.47-13.81,25.91-26.21,43.53-28,9.19-.9,21.18,2.75,28.59,8.33a41.54,41.54,0,0,1,13.23,14.34,52.16,52.16,0,0,1,6.83,25.08c.19,8.88-3.72,20.42-9.81,27.14q-40.9,47.39-81.52,95v98c0,13.46-5.41,26.31-14.08,36.37a52.19,52.19,0,0,1-35,18,45.53,45.53,0,0,1-35-12.11,46.94,46.94,0,0,1-14.51-34.64v-98Q264,550.36,223.65,507.34c-6.4-6.39-10.05-18.11-9.81-26.81A62.4,62.4,0,0,1,215.12,468q1.27-5.32,6-13.66a46.65,46.65,0,0,1,12.8-14.43c9-5.68,18-11.3,29-11.45,18.21-.25,30.91,9.72,43.1,22Q330,478.1,354.25,505.58Z"/><path class="cls-4" d="M600.92,505.54q-11.55,41.16-23,82.33c15.37-.32,30.73-.42,46.1-.4Q612.45,546.5,600.92,505.54Zm-74.26-42.6c6.27-15.67,16-31,29.66-41.21,12.71-9.43,28.66-15.38,44.6-15.2,15.59.18,31.94,4.47,44.6,14a89.28,89.28,0,0,1,29.66,40.21q36.75,94.53,73.41,189.11,5.53,15.48,5.54,26.16a44.25,44.25,0,0,1-7.68,25.51c-4.9,7.17-14,13.57-22.19,16.72a58.18,58.18,0,0,1-20.49,4c-9,0-20.65-4.1-27.74-9.52-8.64-6.61-14-16-18.35-26-1.88-5.64-2.81-8.47-4.69-14.12-34.6-.22-69.13-.14-103.71,1.27-2,5.72-3.07,8.58-5.12,14.32a62.42,62.42,0,0,1-18.57,26.59c-7.09,5.9-18.66,10.69-28,11.19a51.16,51.16,0,0,1-20.06-2.79c-17.71-5.92-30.26-21.43-29.87-40.32.14-7,1.85-16,5.55-26.53Q489.83,559.56,526.66,462.94Z"/><path class="cls-4" d="M759.68,456.73a46.59,46.59,0,0,1,14.51-34.26,50.12,50.12,0,0,1,35.42-13.39,49.34,49.34,0,0,1,34.57,15.17,50.69,50.69,0,0,1,14.08,35.26v61q43.4-46.62,86.64-93.36a57.42,57.42,0,0,1,14.51-11.06,36.1,36.1,0,0,1,9.82-3.36,57.9,57.9,0,0,1,11.09-1.23c8.65-.1,19.68,3.29,26.89,7.79,7.37,4.59,15.09,13.82,18.35,21.93a57.75,57.75,0,0,1,4.27,21.05c.09,11.64-3.49,23.68-12.38,31.72Q983.79,526.14,950,558.13q38.54,43.23,77.25,86.32c8.11,8.91,12.19,20.82,12.38,32.57.23,14.7-7.1,29-18.78,38a48,48,0,0,1-18.78,9c-2.28.29-4.5.85-6.4,1.28a37,37,0,0,1-6.41.41A46.8,46.8,0,0,1,953,709.18q-47.7-58.39-95.17-116.95v82.1a48.79,48.79,0,0,1-14.3,35,48,48,0,0,1-34.78,13.8,49.64,49.64,0,0,1-34.57-15.58A51.47,51.47,0,0,1,759.68,672Z"/><path class="cls-4" d="M1050.74,639.67c6.56-10.63,17.63-17.83,30.3-17.62,2.27,0,4.55.05,6.83.08A57.38,57.38,0,0,1,1096,624l18.78,5.39,17.07,4.54,12.38,3.21,4.69,1.36,7.26,1.41a126,126,0,0,0,15.36,1.56,35.78,35.78,0,0,0,6.83-.51,40.46,40.46,0,0,0,4.69-1q7.68-2.41,10.89-5.13a8.74,8.74,0,0,0,3.2-7c0-2.56-1.43-4.86-4.27-6.91l-3.41-1.35-8.11-2.71-5.55-1.82-22.62-6-4.27-.93q-14.09-4.3-28.17-8.59-12-3.6-21.55-7.58a111,111,0,0,1-17.71-9.19,74.74,74.74,0,0,1-26.89-28.66c-6.26-11.88-9.8-25.65-9.39-38.69.37-11.62,2-22.53,6.19-33,4.55-11.35,11.12-20.86,19.42-30.33,9.44-10.78,22.37-18.36,35.21-24.52,15-7.17,32.37-11.46,49.29-13.05a172,172,0,0,1,22.62-.86,179.28,179.28,0,0,1,46.52,7.72c11.87,3.7,24.32,8.44,34.57,16.21a44.79,44.79,0,0,1,15.79,22.68,40,40,0,0,1,1.71,9.21q.42,5.34.42,5.76,0,13.25-6.82,22.51a38.85,38.85,0,0,1-33.29,17.32,96.7,96.7,0,0,1-26.46-4.77l-3.42-1.34-12.37-4.08-5.12-1.38-12-3.22-6-1.39-4.27-.93-5.55-.53q-11.52-.21-15.79,3.13t-4.26,7.18a6.23,6.23,0,0,0,2.56,4.74l6.82,3.1,8.11,2.29,3,.9,8.54,2.3,14.08,3.68,28.17,8.22a211.75,211.75,0,0,1,37.13,14.78c13.94,7.36,27.42,18.62,35,32.4a96,96,0,0,1,12.38,43.94c.44,10-2,22.22-5.55,31.71-4.1,11-11.06,20.5-18.35,29.79a107.84,107.84,0,0,1-50.36,32.16c-24.68,7.31-51.18,9.14-76.39,8.59-14.6-.33-29.92-1.43-44-5.62-10.62-3.17-21.7-6.9-31.16-13-8.15-5.24-17-10.9-22.19-19.62q-6-10.05-6-25A41.93,41.93,0,0,1,1050.74,639.67Z"/><path class="cls-4" d="M1314.06,468.54a47.64,47.64,0,0,1,49.51-49c39.43.22,78.15.85,117.36,5,11.24,1.21,21.76,7.65,29,16a51.55,51.55,0,0,1,12.38,32.08c.23,9.77-5.16,22.06-12.38,28.53s-19.94,10.64-29.87,9.05c-22.46-2.34-44.83-4-67.43-4.63v26c18.57.55,37,1.72,55.48,3.39,12.73,1.24,24.26,8,32.86,17a46.56,46.56,0,0,1,12.81,30.34c.23,9.74-5.26,22.44-13.24,27.65-10.47,6.85-18.82,8.77-32,8.69-18.63-1.7-37.19-2.87-55.91-3.43V641.7c21.44.63,42.69,2.12,64,4.26a53.37,53.37,0,0,1,32.86,16.65,49.82,49.82,0,0,1,13.65,32.47c.24,9.82-5.66,21.81-13.44,27.74a44.47,44.47,0,0,1-31.79,8.64c-38.35-3.89-76.27-4.44-114.81-4.65-8.76.23-19.59-3.91-26.46-8.76-7.4-5.25-15.32-14.56-18.78-23.27a47.54,47.54,0,0,1-3.84-18.83Z"/><path class="cls-4" d="M1697.73,560.27A20,20,0,0,0,1693,547.7a17.87,17.87,0,0,0-11.1-6.23q-21.37-3.15-42.68-6.66v36.71c13.64,2.23,27.29,4.43,41,6.41q8.1,1.16,13.22-3.92C1696.88,570.62,1698,565.78,1697.73,560.27Zm-157-75.75c1-13.47,2.52-26.61,13.23-35.95,9.92-8.64,24.12-9.87,36.7-7.46,31.1,5.39,62.2,10.75,93.47,15.31,25.74,3.75,51.43,11.44,72.33,27.53a100.54,100.54,0,0,1,36.49,57.44,124.18,124.18,0,0,1,3.42,27.32,93.28,93.28,0,0,1-7.47,37.51A78.19,78.19,0,0,1,1767.3,635l-1.71,1.62c-3.93,2.87-5.89,4.3-9.81,7.12-2.4,1.72-3.59,2.58-6,4.28q18,24.88,36.28,49.48c6.07,9.3,10.66,19.74,10.67,30.83,0,15.28-8.18,30.4-20.86,39.32-7.45,5.53-19.43,8.67-28.52,7.8-19.83-1.94-33.93-16.61-44.69-32.31q-32-51.49-63.42-103.34v72.63c.19,12.37-4.53,24.47-14.14,32.43-9.81,8.13-22.92,10.32-35.15,8.12-13.52-2.44-25.78-10.06-34.72-20.46s-14.61-23.87-14.57-37.88Z"/><path class="cls-5" d="M338.58,492.18Q362.94,461.1,387.23,430c10.59-13.65,25.91-26,43.53-27.53,9.21-.8,21.2,2.95,28.6,8.59a42.18,42.18,0,0,1,13.23,14.45,52.6,52.6,0,0,1,6.82,25.13c.2,8.85-3.71,20.38-9.81,27.06q-40.89,47-81.52,94.25v98c0,13.43-5.39,26.24-14.08,36.25a51.73,51.73,0,0,1-35,17.71,45.93,45.93,0,0,1-35-12.4,47.33,47.33,0,0,1-14.51-34.75v-98Q248.33,536.35,208,493.21c-6.4-6.4-10-18.12-9.81-26.81a62.42,62.42,0,0,1,1.28-12.58q1.28-5.32,6-13.66a46.6,46.6,0,0,1,12.81-14.41c9-5.66,18-11.26,29-11.36,18.24-.17,30.93,9.9,43.1,22.26Q314.38,464.49,338.58,492.18Z"/><path class="cls-5" d="M585.25,494q-11.54,41.13-23,82.28,23-.42,46.09-.34Q596.78,534.91,585.25,494ZM511,451.06c6.27-15.63,16-30.92,29.66-41,12.73-9.39,28.68-15.27,44.6-15.09,15.6.19,32,4.5,44.6,14a89.68,89.68,0,0,1,29.66,40.34q36.76,94.8,73.41,189.64,5.54,15.54,5.55,26.22a43.8,43.8,0,0,1-7.69,25.44c-4.93,7.14-13.87,13.37-22.19,16.54A57.79,57.79,0,0,1,688.11,711c-9.05,0-20.66-4.22-27.74-9.69-8.61-6.65-14.09-16.07-18.36-26.09-1.87-5.65-2.81-8.48-4.69-14.13-34.6-.34-69.13-.24-103.71,1l-5.12,14.3a61.93,61.93,0,0,1-18.56,26.48c-7.1,5.84-18.7,10.57-28,11a51.37,51.37,0,0,1-20.06-3c-17.74-6.09-30.22-21.59-29.87-40.59.13-7,1.85-15.95,5.55-26.48Q474.18,547.4,511,451.06Z"/><path class="cls-5" d="M744,446a46.17,46.17,0,0,1,14.51-34.12,50.07,50.07,0,0,1,70,2.45,51.16,51.16,0,0,1,14.09,35.39v61Q886,464.43,929.23,418a57,57,0,0,1,14.51-11,35.48,35.48,0,0,1,9.82-3.33,57.8,57.8,0,0,1,11.09-1.2c8.66-.08,19.68,3.32,26.89,7.81,7.38,4.61,15.09,13.85,18.35,21.95a57.89,57.89,0,0,1,4.27,21.06c.1,11.64-3.48,23.68-12.38,31.71q-33.64,32.06-67.43,64,38.5,43.37,77.25,86.48c8.1,8.92,12.19,20.84,12.38,32.61.23,14.69-7.1,29-18.78,38a48.12,48.12,0,0,1-18.78,8.95c-2.28.28-4.5.85-6.4,1.27a35.93,35.93,0,0,1-6.4.41A46.88,46.88,0,0,1,937.34,700q-47.76-58.68-95.17-117.63v82.1a48.36,48.36,0,0,1-14.3,34.92,47.56,47.56,0,0,1-34.78,13.47A50.16,50.16,0,0,1,758.52,697,52,52,0,0,1,744,661.18Z"/><path class="cls-5" d="M1035.07,630.71c6.57-10.61,17.65-17.75,30.3-17.47l6.83.13a56.47,56.47,0,0,1,8.11,1.87c7.51,2.2,11.27,3.3,18.78,5.53,6.83,1.86,10.24,2.8,17.07,4.68l12.38,3.3,4.69,1.41,7.26,1.48a127.59,127.59,0,0,0,15.36,1.7,36.47,36.47,0,0,0,6.83-.44,42.39,42.39,0,0,0,4.69-.94c5.13-1.56,8.75-3.23,10.89-5a8.65,8.65,0,0,0,3.2-7c0-2.56-1.43-4.87-4.27-7l-3.41-1.38-8.11-2.79-5.55-1.87-22.62-6.17-4.27-1q-14.07-4.44-28.17-8.83-11.94-3.69-21.55-7.74a112.18,112.18,0,0,1-17.71-9.3,75.48,75.48,0,0,1-26.89-28.8c-6.26-11.9-9.8-25.68-9.39-38.73.37-11.55,1.94-22.53,6.19-33,4.62-11.35,11.11-20.79,19.42-30.24,9.44-10.73,22.37-18.23,35.21-24.29,15-7.07,32.4-11.21,49.29-12.65a174.76,174.76,0,0,1,22.62-.65,180.74,180.74,0,0,1,46.52,8.17c11.88,3.82,24.32,8.7,34.57,16.54a45.44,45.44,0,0,1,15.79,22.81,39.19,39.19,0,0,1,1.71,9.22c.28,3.57.43,5.49.43,5.77q0,13.25-6.83,22.45a38.5,38.5,0,0,1-33.29,17,97.93,97.93,0,0,1-26.46-5l-3.42-1.38L1178.9,497l-5.12-1.43-12-3.33-6-1.45-4.27-1-5.54-.59q-11.54-.32-15.8,3c-2.84,2.21-4.26,4.58-4.26,7.14a6.26,6.26,0,0,0,2.56,4.76c2.73,1.27,4.09,1.91,6.83,3.17l8.11,2.36,3,.94L1155,513l14.08,3.81,28.17,8.5a213.2,213.2,0,0,1,37.13,15.13c13.94,7.48,27.42,18.84,35,32.7a96.67,96.67,0,0,1,12.37,44c.44,10-2,22.19-5.55,31.67-4.09,11-11.06,20.41-18.35,29.64a106.55,106.55,0,0,1-50.36,31.7c-24.71,7.08-51.21,8.64-76.39,7.87-14.61-.46-29.93-1.69-44-6-10.62-3.24-21.7-7-31.15-13.18-8.16-5.28-17-11-22.2-19.72q-6-10.08-6-25A41.82,41.82,0,0,1,1035.07,630.71Z"/><path class="cls-5" d="M1298.39,461.71a48.34,48.34,0,0,1,14.09-35.16A48.91,48.91,0,0,1,1347.9,413c39.39.33,78.16.83,117.36,4.5,11.1,1,21.83,7.4,29,15.62A50.68,50.68,0,0,1,1506.66,465c.2,9.94-5.09,22.08-12.37,28.72s-19.79,10.9-29.88,9.48c-22.46-2.08-44.85-3.52-67.43-4.12v26c18.56.49,37,1.52,55.48,3,12.68,1.1,24.23,7.67,32.86,16.6a45.62,45.62,0,0,1,12.81,30.14c.2,9.9-5.21,22.41-13.23,27.85-10.27,7-19,9.17-32,9.1-18.63-1.51-37.2-2.56-55.91-3v26.46c21.43.56,42.69,1.88,64,3.79a52.69,52.69,0,0,1,32.86,16.2,48.8,48.8,0,0,1,13.66,32.25c.21,10-5.62,21.83-13.45,28a44.65,44.65,0,0,1-31.79,9.08c-38.34-3.46-76.3-3.89-114.81-4.21-8.77.19-19.6-4-26.46-8.88-7.4-5.29-15.31-14.64-18.77-23.38a47.69,47.69,0,0,1-3.85-18.85Z"/><path class="cls-5" d="M1682.06,549.47a19.7,19.7,0,0,0-4.69-12.5,17.53,17.53,0,0,0-11.1-6.06q-21.37-2.79-42.67-5.92V561.7c13.64,2,27.28,3.94,41,5.7,5.4.69,9.81-.7,13.23-4.13S1682.33,555,1682.06,549.47Zm-157-72.91c1-13.55,2.57-26.7,13.23-36.18,9.87-8.78,24-10.33,36.7-8.16,31.11,4.79,62.21,9.55,93.47,13.6,25.73,3.43,51.37,10.7,72.34,26.68,18.66,14.24,31.2,34.48,36.49,57.3a124.66,124.66,0,0,1,3.41,27.32,93.31,93.31,0,0,1-7.47,37.51,78.62,78.62,0,0,1-21.55,28.85l-1.71,1.64c-3.92,2.89-5.89,4.33-9.81,7.18l-6,4.33q18,24.76,36.28,49.29c6.13,9.13,10.67,19.87,10.67,30.82,0,15.29-8.19,30.41-20.86,39.36-7.44,5.55-19.41,8.77-28.52,8-19.66-1.76-34-16.16-44.69-31.8q-32-51-63.41-102.29v72.63c.17,12.44-4.59,24.6-14.15,32.7-9.75,8.25-22.83,10.76-35.15,8.79-13.46-2.16-25.75-9.54-34.72-19.8S1525,700.62,1525,686.68Z"/><path class="cls-6" d="M322.91,478.77q24.36-30.86,48.65-61.76c10.71-13.48,25.91-25.77,43.53-27.12,9.23-.7,21.22,3.16,28.6,8.85a42.64,42.64,0,0,1,13.23,14.56,53.07,53.07,0,0,1,6.83,25.19c.19,8.83-3.71,20.33-9.82,27q-40.86,46.65-81.51,93.5v98c0,13.39-5.37,26.17-14.09,36.11a51.16,51.16,0,0,1-35,17.39,46.36,46.36,0,0,1-35-12.68A47.71,47.71,0,0,1,273.83,663v-98q-41.12-42.58-81.51-85.85c-6.4-6.39-10-18.11-9.82-26.81a64,64,0,0,1,1.28-12.58q1.28-5.32,6-13.65a46.31,46.31,0,0,1,12.81-14.39c9-5.65,18-11.22,29-11.28,18.27-.09,31,10.08,43.1,22.5Q298.72,450.88,322.91,478.77Z"/><path class="cls-6" d="M569.58,482.35q-11.54,41.11-23,82.24,23.06-.37,46.09-.29Q581.13,523.32,569.58,482.35Zm-74.25-43.18c6.26-15.58,15.95-30.82,29.66-40.88,12.74-9.34,28.69-15.15,44.59-15,15.61.19,32,4.51,44.6,14.1a90.07,90.07,0,0,1,29.66,40.46Q680.64,533,717.25,628.08q5.54,15.57,5.55,26.26a43.44,43.44,0,0,1-7.68,25.38c-5,7.11-13.72,13.18-22.2,16.35a57.18,57.18,0,0,1-20.48,3.66c-9.07-.09-20.66-4.34-27.74-9.87-8.58-6.68-14.17-16.1-18.35-26.17l-4.7-14.15c-34.59-.45-69.13-.33-103.71.77-2,5.7-3.07,8.56-5.12,14.27A61.47,61.47,0,0,1,494.26,691c-7.1,5.78-18.72,10.44-28,10.79a51.45,51.45,0,0,1-20.05-3.12c-17.78-6.27-30.2-21.76-29.88-40.86.12-7,1.85-15.93,5.55-26.43Q458.52,535.22,495.33,439.17Z"/><path class="cls-6" d="M728.34,435.18a45.73,45.73,0,0,1,14.51-34,49.24,49.24,0,0,1,35.42-12.71,50.33,50.33,0,0,1,34.57,15.83,51.64,51.64,0,0,1,14.09,35.51v61q43.46-45.92,86.63-92.09a57,57,0,0,1,14.51-10.93,35.87,35.87,0,0,1,9.82-3.29,57.63,57.63,0,0,1,11.1-1.17c8.65-.06,19.66,3.34,26.88,7.84,7.39,4.61,15.09,13.86,18.35,22a57.94,57.94,0,0,1,4.27,21.07c.1,11.63-3.48,23.66-12.37,31.68q-33.63,32-67.44,63.83,38.46,43.47,77.25,86.63c8.1,8.94,12.19,20.87,12.38,32.64.24,14.68-7.09,28.94-18.78,37.91a48.24,48.24,0,0,1-18.78,8.94c-2.28.28-4.5.85-6.4,1.27a36.18,36.18,0,0,1-6.4.39,46.93,46.93,0,0,1-36.28-16.7q-47.8-59-95.17-118.31v82.11a47.83,47.83,0,0,1-14.3,34.78,47.14,47.14,0,0,1-34.78,13.14,50.74,50.74,0,0,1-34.57-16.24,52.42,52.42,0,0,1-14.51-35.91Z"/><path class="cls-6" d="M1019.41,621.76c6.56-10.6,17.66-17.69,30.3-17.33,2.26.07,4.54.11,6.83.17a59.1,59.1,0,0,1,8.1,1.92c7.52,2.26,11.27,3.39,18.78,5.67,6.83,1.92,10.24,2.88,17.07,4.82l12.38,3.41,4.69,1.45,7.26,1.54a129.63,129.63,0,0,0,15.36,1.85,36.41,36.41,0,0,0,6.83-.38,41.3,41.3,0,0,0,4.7-.89q7.68-2.26,10.88-4.92a8.55,8.55,0,0,0,3.2-6.92c0-2.56-1.43-4.89-4.27-7l-3.41-1.41-8.11-2.87-5.55-1.92-22.62-6.39-4.27-1q-14.07-4.56-28.16-9.07-12-3.78-21.56-7.9a114.24,114.24,0,0,1-17.71-9.42,76.11,76.11,0,0,1-26.88-28.93c-6.26-11.92-9.81-25.71-9.39-38.77.36-11.49,1.89-22.54,6.19-33,4.67-11.36,11.1-20.74,19.41-30.16,9.44-10.67,22.38-18.09,35.21-24.06,15-7,32.42-10.95,49.3-12.24a173.92,173.92,0,0,1,22.62-.44,181,181,0,0,1,46.51,8.62c11.9,3.93,24.31,8.95,34.57,16.85A46.06,46.06,0,0,1,1243.46,446a39.37,39.37,0,0,1,1.71,9.24c.28,3.56.43,5.49.43,5.77q0,13.23-6.83,22.39a38.1,38.1,0,0,1-33.29,16.73,98.31,98.31,0,0,1-26.46-5.28l-3.41-1.41-12.38-4.32-5.12-1.47-11.95-3.45-6-1.5-4.26-1-5.55-.63q-11.52-.42-15.79,2.84t-4.27,7.11a6.33,6.33,0,0,0,2.56,4.78l6.83,3.23,8.11,2.43,3,1,8.54,2.46,14.08,3.94,28.17,8.77a216.57,216.57,0,0,1,37.13,15.48c14,7.61,27.42,19.07,35,33a97.27,97.27,0,0,1,12.37,44.13c.45,10-2,22.17-5.54,31.62-4.1,11-11.06,20.32-18.36,29.5-13.12,15-31.31,26-50.36,31.24-24.75,6.85-51.24,8.14-76.39,7.15-14.62-.59-29.94-2-44-6.33-10.62-3.32-21.7-7.2-31.15-13.38-8.16-5.32-17-11.06-22.19-19.83q-6-10.09-6-25A41.55,41.55,0,0,1,1019.41,621.76Z"/><path class="cls-6" d="M1282.73,454.89a48,48,0,0,1,14.08-35.07,48.76,48.76,0,0,1,35.42-13.43c39.36.44,78.17.81,117.37,4,11,.84,21.89,7.15,29,15.22A49.85,49.85,0,0,1,1491,457.31c.18,10.11-5,22.09-12.37,28.92s-19.63,11.14-29.88,9.89c-22.46-1.82-44.86-3.08-67.43-3.6v26c18.56.43,37,1.33,55.48,2.63,12.63,1,24.2,7.35,32.87,16.18a44.77,44.77,0,0,1,12.8,29.95c.17,10.06-5.17,22.37-13.23,28.05-10.06,7.07-19.12,9.57-32,9.5-18.63-1.31-37.21-2.23-55.91-2.66v26.46c21.42.49,42.69,1.64,64,3.31a52.09,52.09,0,0,1,32.86,15.75,47.88,47.88,0,0,1,13.66,32c.18,10.15-5.57,21.85-13.45,28.16a44.82,44.82,0,0,1-31.79,9.52c-38.33-3-76.33-3.35-114.8-3.78-8.79.17-19.62-4.07-26.46-9-7.41-5.33-15.32-14.72-18.78-23.49a47.88,47.88,0,0,1-3.84-18.87Z"/><path class="cls-6" d="M1666.4,538.67a19.5,19.5,0,0,0-4.7-12.43,17.21,17.21,0,0,0-11.09-5.89q-21.37-2.45-42.68-5.18v36.71c13.64,1.74,27.29,3.44,41,5q8.1.92,13.23-4.33C1665.54,549.05,1666.67,544.16,1666.4,538.67ZM1509.34,468.6c1-13.63,2.62-26.79,13.23-36.42,9.82-8.91,23.92-10.77,36.7-8.85,31.12,4.19,62.23,8.36,93.47,11.9,25.73,3.11,51.31,9.94,72.34,25.83,18.7,14.13,31.21,34.37,36.49,57.14a124.74,124.74,0,0,1,3.41,27.33,93.31,93.31,0,0,1-7.47,37.51A79.37,79.37,0,0,1,1736,612l-1.71,1.64c-3.92,2.92-5.88,4.37-9.81,7.24-2.39,1.76-3.59,2.64-6,4.38q18,24.66,36.28,49.11c6.2,9,10.67,20,10.67,30.8,0,15.3-8.21,30.42-20.86,39.41-7.44,5.57-19.39,8.86-28.51,8.15-19.51-1.58-34.16-15.72-44.7-31.3q-31.92-50.49-63.41-101.24v72.63c.17,12.52-4.63,24.73-14.15,33-9.68,8.38-22.74,11.19-35.15,9.46-13.4-1.88-25.72-9-34.72-19.14a56.27,56.27,0,0,1-14.57-37.36Z"/><path class="cls-7" d="M307.24,465.37q24.36-30.64,48.65-61.32c10.83-13.31,25.91-25.55,43.54-26.69,9.24-.6,21.23,3.36,28.59,9.1a43.23,43.23,0,0,1,13.23,14.68,53.36,53.36,0,0,1,6.83,25.24c.19,8.8-3.7,20.29-9.82,26.9Q397.42,499.57,356.75,546v98c0,13.35-5.35,26.09-14.09,36a50.68,50.68,0,0,1-35,17.07,46.76,46.76,0,0,1-35-13,48.06,48.06,0,0,1-14.51-35v-98q-41.06-42.81-81.51-86.19c-6.4-6.4-10.05-18.12-9.82-26.82a64,64,0,0,1,1.28-12.58q1.27-5.32,6-13.65a46,46,0,0,1,12.8-14.37c9-5.63,18-11.18,29-11.19,18.31,0,31,10.27,43.11,22.74Q283.07,437.29,307.24,465.37Z"/><path class="cls-7" d="M553.92,470.75q-11.55,41.1-23,82.2,23.05-.33,46.09-.23Q565.45,511.73,553.92,470.75Zm-74.26-43.46c6.26-15.54,15.95-30.73,29.66-40.72,12.76-9.3,28.71-15,44.6-14.83,15.61.2,32,4.54,44.59,14.16a90.55,90.55,0,0,1,29.67,40.6q36.81,95.31,73.4,190.7,5.55,15.63,5.55,26.32a43,43,0,0,1-7.68,25.3c-5,7.09-13.57,13-22.19,16.17a57,57,0,0,1-20.49,3.51c-9.09-.16-20.66-4.47-27.74-10-8.54-6.72-14.26-16.15-18.35-26.26L606,638q-51.87-.84-103.7.53c-2,5.7-3.08,8.55-5.12,14.24a61,61,0,0,1-18.57,26.27c-7.1,5.72-18.74,10.31-27.95,10.59a51.64,51.64,0,0,1-20.06-3.29c-17.82-6.44-30.17-21.92-29.88-41.12.11-7,1.86-15.92,5.55-26.38Q442.87,523,479.66,427.29Z"/><path class="cls-7" d="M712.67,424.4a45.3,45.3,0,0,1,14.51-33.85,48.82,48.82,0,0,1,35.43-12.37,50.91,50.91,0,0,1,34.57,16.15A52.14,52.14,0,0,1,811.26,430v61q43.49-45.56,86.64-91.46a56.66,56.66,0,0,1,14.51-10.86,35.64,35.64,0,0,1,9.81-3.25,58.31,58.31,0,0,1,11.1-1.15c8.66,0,19.66,3.38,26.89,7.88,7.39,4.61,15.09,13.87,18.35,22a58.14,58.14,0,0,1,4.26,21.07c.1,11.63-3.48,23.65-12.37,31.67q-33.6,32-67.43,63.68c25.6,29.06,51.47,57.88,77.24,86.79,8.1,8.95,12.19,20.89,12.38,32.67.24,14.67-7.09,28.92-18.78,37.87a48.21,48.21,0,0,1-18.78,8.92c-2.28.29-4.5.85-6.4,1.27a36.18,36.18,0,0,1-6.4.39A47,47,0,0,1,906,681.66q-47.87-59.26-95.17-119v82.11a47.46,47.46,0,0,1-14.29,34.65,46.79,46.79,0,0,1-34.79,12.81,51.3,51.3,0,0,1-34.57-16.57,53,53,0,0,1-14.51-36Z"/><path class="cls-7" d="M1003.74,612.79c6.57-10.57,17.68-17.6,30.3-17.17l6.83.22a56.89,56.89,0,0,1,8.11,2c7.51,2.3,11.26,3.47,18.77,5.8,6.83,2,10.25,3,17.08,5l12.37,3.52,4.7,1.49,7.25,1.6a129.46,129.46,0,0,0,15.37,2,37.16,37.16,0,0,0,6.82-.32,39.38,39.38,0,0,0,4.7-.85q7.68-2.19,10.88-4.81a8.47,8.47,0,0,0,3.2-6.89q0-3.84-4.27-7l-3.41-1.44-8.11-3-5.55-2c-9-2.65-13.57-4-22.62-6.6l-4.26-1q-14.07-4.69-28.17-9.31-12-3.88-21.55-8.06a115.2,115.2,0,0,1-17.72-9.54,76.64,76.64,0,0,1-26.88-29.07c-6.25-11.93-9.81-25.73-9.39-38.8.36-11.42,1.85-22.54,6.19-33,4.73-11.36,11.09-20.69,19.42-30.06,9.43-10.63,22.37-18,35.2-23.85,15-6.86,32.44-10.69,49.3-11.82a171.45,171.45,0,0,1,22.62-.23,182.27,182.27,0,0,1,46.52,9.06c11.9,4.05,24.3,9.2,34.56,17.17a46.78,46.78,0,0,1,15.8,23.09,40.12,40.12,0,0,1,1.7,9.25q.43,5.36.43,5.78,0,13.23-6.83,22.33a37.75,37.75,0,0,1-33.29,16.43,99.19,99.19,0,0,1-26.46-5.53l-3.41-1.45-12.38-4.43-5.12-1.53-12-3.56-6-1.56-4.27-1.05-5.55-.69q-11.52-.52-15.79,2.71t-4.27,7.06a6.42,6.42,0,0,0,2.56,4.81l6.83,3.29,8.11,2.5,3,1,8.53,2.53,14.09,4.09,28.16,9A219.67,219.67,0,0,1,1203,525.73c14,7.74,27.41,19.31,35,33.3a98,98,0,0,1,12.38,44.23c.44,10-2,22.14-5.55,31.58-4.09,10.93-11,20.22-18.35,29.35-13.14,14.88-31.35,25.69-50.36,30.78-24.79,6.62-51.28,7.64-76.4,6.43-14.63-.72-30-2.22-44-6.69-10.63-3.39-21.7-7.34-31.15-13.57-8.16-5.37-17-11.15-22.19-19.93q-6-10.12-6-25.07A41.58,41.58,0,0,1,1003.74,612.79Z"/><path class="cls-7" d="M1267.06,448.07a47.74,47.74,0,0,1,14.08-35c9.44-9.15,22.33-13.63,35.42-13.27,39.32.55,78.19.8,117.37,3.55,10.82.65,22,6.9,29,14.81a49.05,49.05,0,0,1,12.38,31.49c.14,10.27-5,22.11-12.38,29.12s-19.48,11.39-29.88,10.3c-22.46-1.56-44.87-2.64-67.43-3.09v26c18.55.36,37,1.14,55.48,2.25,12.59.81,24.18,7,32.87,15.76a43.89,43.89,0,0,1,12.8,29.76c.15,10.23-5.13,22.34-13.23,28.24-9.85,7.18-19.27,10-32,9.92-18.63-1.13-37.22-1.91-55.91-2.29v26.47c21.41.42,42.69,1.41,64,2.84a51.43,51.43,0,0,1,32.86,15.29,46.89,46.89,0,0,1,13.66,31.82c.15,10.32-5.52,21.88-13.44,28.38a45,45,0,0,1-31.8,9.95c-38.32-2.59-76.36-2.8-114.8-3.33-8.8.13-19.63-4.16-26.46-9.11-7.41-5.37-15.31-14.8-18.78-23.6a48,48,0,0,1-3.84-18.9Z"/><path class="cls-7" d="M1650.73,527.87a19.21,19.21,0,0,0-4.7-12.36,16.84,16.84,0,0,0-11.09-5.72q-21.37-2.1-42.68-4.44v36.71c13.64,1.49,27.29,3,41,4.27q8.1.78,13.23-4.53C1649.87,538.26,1651,533.36,1650.73,527.87Zm-157.06-67.24c1-13.71,2.67-26.87,13.23-36.66,9.77-9,23.83-11.21,36.71-9.54,31.12,3.6,62.23,7.17,93.46,10.21,25.73,2.78,51.24,9.18,72.34,25,18.74,14,31.22,34.27,36.49,57a124.58,124.58,0,0,1,3.41,27.32,93.32,93.32,0,0,1-7.46,37.52,79.92,79.92,0,0,1-21.56,29l-1.7,1.65c-3.93,2.94-5.89,4.41-9.82,7.31-2.39,1.77-3.58,2.66-6,4.42q18,24.55,36.28,48.92c6.26,8.79,10.67,20.13,10.67,30.79,0,15.32-8.22,30.43-20.86,39.45-7.44,5.6-19.37,9-28.51,8.33-19.34-1.4-34.26-15.27-44.69-30.79q-31.9-50-63.42-100.19V683c.16,12.6-4.68,24.85-14.14,33.23-9.63,8.51-22.65,11.64-35.15,10.14-13.35-1.61-25.71-8.5-34.73-18.49a55.3,55.3,0,0,1-14.57-37.1Z"/><path class="cls-8" d="M291.57,452q24.36-30.4,48.66-60.86c10.94-13.15,25.9-25.33,43.53-26.28,9.26-.5,21.25,3.56,28.59,9.36A43.8,43.8,0,0,1,425.58,389a53.71,53.71,0,0,1,6.83,25.3c.2,8.77-3.69,20.24-9.82,26.82q-40.83,45.93-81.51,92v98c.05,13.32-5.33,26-14.08,35.84a50.2,50.2,0,0,1-35,16.74,47.17,47.17,0,0,1-35-13.26,48.44,48.44,0,0,1-14.51-35.06v-98q-41-43-81.51-86.53c-6.4-6.4-10-18.12-9.82-26.82a64,64,0,0,1,1.28-12.58q1.29-5.32,6-13.65a46.18,46.18,0,0,1,12.8-14.36c9-5.6,18-11.14,29-11.1,18.34.08,31,10.46,43.11,23Q267.41,423.67,291.57,452Z"/><path class="cls-8" d="M538.25,459.15q-11.54,41.07-23,82.15,23.06-.27,46.09-.17Q549.79,500.13,538.25,459.15ZM464,415.41c6.26-15.5,16-30.63,29.66-40.56,12.78-9.25,28.74-14.93,44.6-14.71,15.62.21,32,4.57,44.6,14.22a91,91,0,0,1,29.66,40.72q36.82,95.58,73.4,191.25,5.55,15.67,5.55,26.36a42.62,42.62,0,0,1-7.68,25.24c-5,7.06-13.41,12.8-22.19,16a56.19,56.19,0,0,1-20.49,3.35c-9.1-.22-20.66-4.58-27.74-10.21-8.5-6.75-14.34-16.19-18.35-26.34-1.88-5.68-2.82-8.52-4.69-14.2-34.59-.67-69.14-.5-103.71.29L481.49,641a60.41,60.41,0,0,1-18.57,26.16c-7.11,5.66-18.76,10.19-27.95,10.39a51.84,51.84,0,0,1-20.06-3.45c-17.85-6.63-30.13-22.08-29.88-41.4.1-7,1.86-15.9,5.55-26.32Q427.23,510.87,464,415.41Z"/><path class="cls-8" d="M697,413.62a44.81,44.81,0,0,1,14.51-33.71c9.6-8.75,22.57-12.79,35.42-12a51.47,51.47,0,0,1,34.57,16.49,52.52,52.52,0,0,1,14.08,35.77v61q43.53-45.21,86.64-90.83a56,56,0,0,1,14.51-10.79,35.67,35.67,0,0,1,9.81-3.23,58.89,58.89,0,0,1,11.1-1.11c8.66,0,19.66,3.4,26.89,7.91,7.39,4.61,15.09,13.88,18.35,22a58.3,58.3,0,0,1,4.27,21.09c.09,11.62-3.48,23.64-12.38,31.64q-33.59,31.92-67.43,63.54c25.58,29.14,51.47,58,77.25,87,8.09,9,12.18,20.91,12.37,32.7.24,14.66-7.08,28.89-18.78,37.83a48.29,48.29,0,0,1-18.77,8.91c-2.28.28-4.51.84-6.41,1.26a35.24,35.24,0,0,1-6.4.38,47,47,0,0,1-36.27-16.92q-47.93-59.58-95.18-119.66v82.11a47,47,0,0,1-14.29,34.52,46.28,46.28,0,0,1-34.79,12.47A51.76,51.76,0,0,1,711.52,665,53.34,53.34,0,0,1,697,628.85Z"/><path class="cls-8" d="M988.07,603.83c6.57-10.56,17.71-17.53,30.3-17,2.26.1,4.55.17,6.83.26a57.58,57.58,0,0,1,8.11,2c7.51,2.36,11.26,3.55,18.78,5.95,6.82,2,10.24,3,17.07,5.09,4.95,1.44,7.42,2.17,12.37,3.63l4.7,1.53,7.25,1.67a131.29,131.29,0,0,0,15.37,2.13,37.21,37.21,0,0,0,6.83-.25,40,40,0,0,0,4.69-.8c5.12-1.42,8.75-3,10.88-4.71a8.4,8.4,0,0,0,3.2-6.86q0-3.84-4.26-7.07l-3.42-1.48c-3.24-1.21-4.86-1.82-8.11-3l-5.55-2c-9-2.73-13.57-4.09-22.61-6.8l-4.27-1.09q-14.07-4.8-28.17-9.54-12-4-21.55-8.22a117.61,117.61,0,0,1-17.71-9.65,77.51,77.51,0,0,1-26.89-29.21c-6.25-11.95-9.81-25.76-9.39-38.84.36-11.35,1.81-22.55,6.19-32.94,4.79-11.37,11.09-20.63,19.42-30,9.43-10.58,22.37-17.83,35.21-23.62,15-6.76,32.45-10.44,49.29-11.42a174.25,174.25,0,0,1,22.62,0,183.47,183.47,0,0,1,46.52,9.51c11.91,4.17,24.3,9.46,34.57,17.5a47.4,47.4,0,0,1,15.79,23.22,40.21,40.21,0,0,1,1.7,9.26q.43,5.35.43,5.78,0,13.24-6.83,22.28a37.35,37.35,0,0,1-33.29,16.13,100,100,0,0,1-26.46-5.78l-3.41-1.48-12.38-4.56-5.12-1.57-12-3.67-6-1.62-4.27-1.1-5.55-.73q-11.52-.64-15.79,2.56t-4.27,7a6.52,6.52,0,0,0,2.56,4.83c2.73,1.33,4.1,2,6.83,3.35l8.11,2.57,3,1,8.53,2.61,14.09,4.22,28.16,9.3a222.82,222.82,0,0,1,37.13,16.18c14,7.87,27.41,19.54,35,33.6a98.53,98.53,0,0,1,12.38,44.32c.44,10-2,22.12-5.55,31.55-4.09,10.88-11,20.12-18.35,29.19-13.14,14.78-31.37,25.43-50.36,30.33-24.82,6.39-51.31,7.14-76.4,5.71-14.64-.85-30-2.48-43.95-7-10.64-3.48-21.71-7.5-31.16-13.77-8.15-5.41-17-11.23-22.19-20q-6-10.14-6-25.09A41.44,41.44,0,0,1,988.07,603.83Z"/><path class="cls-8" d="M1251.39,441.24a47.49,47.49,0,0,1,14.08-34.9c9.46-9.11,22.36-13.51,35.43-13.1,39.28.66,78.19.78,117.36,3.07,10.68.47,22,6.65,29,14.41A48.3,48.3,0,0,1,1459.66,442c.12,10.45-4.9,22.13-12.38,29.32S1428,483,1417.41,482c-22.47-1.3-44.89-2.2-67.43-2.57v26c18.53.31,37,.95,55.48,1.88,12.53.66,24.14,6.71,32.86,15.34a43,43,0,0,1,12.8,29.56c.12,10.4-5.09,22.3-13.23,28.45-9.64,7.28-19.42,10.38-32,10.32-18.63-.94-37.22-1.59-55.9-1.9v26.46c21.39.35,42.68,1.18,64,2.37a50.86,50.86,0,0,1,32.86,14.84,45.92,45.92,0,0,1,13.66,31.61c.13,10.49-5.47,21.89-13.44,28.59a45.24,45.24,0,0,1-31.8,10.39c-38.31-2.16-76.39-2.26-114.8-2.9-8.81.1-19.63-4.24-26.46-9.22-7.42-5.41-15.31-14.88-18.78-23.71a48.23,48.23,0,0,1-3.84-18.92Z"/><path class="cls-8" d="M1635.06,517.07c-.23-4.59-1.57-8.93-4.7-12.29a16.54,16.54,0,0,0-11.09-5.55q-21.36-1.75-42.68-3.7v36.7c13.65,1.25,27.3,2.47,41,3.57q8.1.65,13.23-4.74C1634.21,527.47,1635.33,522.55,1635.06,517.07Zm-157-64.4c1-13.8,2.71-27,13.23-36.9,9.71-9.17,23.72-11.66,36.7-10.23,31.12,3,62.25,6,93.46,8.5,25.72,2.46,51.18,8.43,72.34,24.12,18.78,13.92,31.23,34.17,36.49,56.85a124.71,124.71,0,0,1,3.42,27.32,93.58,93.58,0,0,1-7.47,37.53,80.45,80.45,0,0,1-21.56,29.07l-1.7,1.67c-3.93,3-5.89,4.43-9.82,7.36-2.39,1.8-3.58,2.69-6,4.47q18,24.45,36.27,48.73c6.32,8.63,10.67,20.26,10.67,30.79,0,15.32-8.24,30.43-20.86,39.48-7.43,5.63-19.34,9.06-28.51,8.51-19.18-1.22-34.37-14.82-44.69-30.28q-31.87-49.47-63.42-99.14v72.63a44.17,44.17,0,0,1-14.14,33.49c-9.57,8.65-22.56,12.07-35.15,10.81a55.07,55.07,0,0,1-34.72-17.83A54.27,54.27,0,0,1,1478,662.79Z"/><path class="cls-9" d="M275.91,438.55q24.33-30.18,48.65-60.41c11.06-13,25.9-25.11,43.53-25.86,9.28-.39,21.26,3.77,28.59,9.62a44.37,44.37,0,0,1,13.23,14.9,54.06,54.06,0,0,1,6.83,25.35c.2,8.75-3.67,20.2-9.81,26.74q-40.83,45.57-81.52,91.24v98a53.5,53.5,0,0,1-14.08,35.71,49.77,49.77,0,0,1-35,16.42,47.58,47.58,0,0,1-35-13.55,48.74,48.74,0,0,1-14.51-35.17v-98q-41-43.23-81.52-86.86c-6.39-6.41-10.05-18.13-9.82-26.83a63.1,63.1,0,0,1,1.29-12.58q1.28-5.33,6-13.65a46,46,0,0,1,12.8-14.34c9-5.59,18-11.1,29-11,18.37.15,31,10.64,43.11,23.23Q251.76,410.07,275.91,438.55Z"/><path class="cls-9" d="M522.58,447.55q-11.54,41-23.05,82.11,23.06-.21,46.1-.12Q534.13,488.54,522.58,447.55Zm-74.26-44c6.26-15.45,16-30.53,29.66-40.39,12.8-9.21,28.76-14.82,44.6-14.6,15.64.22,32,4.6,44.6,14.29a91.33,91.33,0,0,1,29.66,40.85q36.85,95.83,73.41,191.78,5.54,15.72,5.54,26.41A42.23,42.23,0,0,1,668.11,647c-5,7-13.26,12.61-22.19,15.8a56.08,56.08,0,0,1-20.49,3.2c-9.12-.29-20.66-4.71-27.74-10.39-8.47-6.79-14.42-16.23-18.35-26.43-1.88-5.69-2.82-8.53-4.69-14.21-34.58-.79-69.13-.59-103.71,0-2.05,5.67-3.07,8.51-5.12,14.19-3.29,9.76-10.68,19.81-18.57,26-7.11,5.61-18.78,10.07-27.95,10.19a51.84,51.84,0,0,1-20.06-3.61c-17.89-6.8-30.1-22.25-29.87-41.67.08-7,1.85-15.88,5.54-26.27Q411.57,498.69,448.32,403.52Z"/><path class="cls-9" d="M681.34,402.85a44.42,44.42,0,0,1,14.51-33.59c9.63-8.68,22.61-12.58,35.42-11.69a52,52,0,0,1,34.57,16.81,53,53,0,0,1,14.08,35.9v61q43.56-44.87,86.64-90.2a56,56,0,0,1,14.51-10.72,35.36,35.36,0,0,1,9.82-3.19A58.6,58.6,0,0,1,902,366.12c8.67,0,19.66,3.42,26.89,7.93,7.4,4.62,15.09,13.9,18.35,22a58.09,58.09,0,0,1,4.27,21.09c.1,11.61-3.48,23.63-12.38,31.62q-33.55,31.88-67.43,63.4c25.55,29.21,51.46,58.09,77.25,87.1,8.09,9,12.18,20.94,12.37,32.74.25,14.65-7.08,28.87-18.77,37.78a48.31,48.31,0,0,1-18.78,8.9c-2.28.28-4.51.85-6.4,1.26a35.54,35.54,0,0,1-6.41.37,47,47,0,0,1-36.27-17q-48-59.87-95.17-120.33v82.1a46.58,46.58,0,0,1-14.3,34.39,45.87,45.87,0,0,1-34.78,12.15c-13.28-1-25.64-7.46-34.57-17.23s-14.57-22.77-14.51-36.31Z"/><path class="cls-9" d="M972.4,594.87c6.58-10.54,17.73-17.46,30.3-16.87,2.26.11,4.55.2,6.83.3a59.08,59.08,0,0,1,8.11,2.08c7.51,2.41,11.27,3.62,18.78,6.08,6.83,2.07,10.24,3.12,17.07,5.23,5,1.48,7.42,2.23,12.37,3.73l4.7,1.57,7.25,1.74a130.91,130.91,0,0,0,15.37,2.27,37.16,37.16,0,0,0,6.83-.18,40.26,40.26,0,0,0,4.69-.76q7.68-2,10.88-4.6a8.29,8.29,0,0,0,3.21-6.83c0-2.56-1.43-4.93-4.27-7.12L1111.1,580l-8.11-3.1-5.54-2.08c-9-2.81-13.57-4.22-22.62-7l-4.27-1.12q-14.07-4.94-28.17-9.78-12-4.08-21.55-8.39a118,118,0,0,1-17.71-9.76,78.29,78.29,0,0,1-26.89-29.35c-6.24-12-9.81-25.78-9.39-38.88.36-11.28,1.77-22.55,6.19-32.91a105.53,105.53,0,0,1,19.42-29.88c9.44-10.53,22.38-17.7,35.21-23.4,15-6.65,32.47-10.18,49.29-11a170.13,170.13,0,0,1,22.62.19,184.15,184.15,0,0,1,46.52,10c11.92,4.29,24.3,9.71,34.57,17.82a48,48,0,0,1,15.79,23.36,40.82,40.82,0,0,1,1.71,9.27c.28,3.57.42,5.51.42,5.79q0,13.23-6.82,22.21a37,37,0,0,1-33.29,15.83,100,100,0,0,1-26.46-6l-3.42-1.51-12.37-4.67-5.13-1.63-11.95-3.78-6-1.68-4.27-1.13-5.55-.79c-7.68-.5-12.95.32-15.79,2.42s-4.27,4.43-4.27,7a6.57,6.57,0,0,0,2.56,4.85l6.83,3.41,8.11,2.65,3,1.05,8.54,2.69,14.08,4.34,28.17,9.58a225.85,225.85,0,0,1,37.13,16.53c14,8,27.39,19.77,35,33.9a99.1,99.1,0,0,1,12.38,44.42c.44,10-2,22.09-5.55,31.5-4.08,10.85-11,20-18.35,29-13.15,14.67-31.4,25.16-50.36,29.87-24.86,6.16-51.33,6.64-76.39,5-14.66-1-30-2.73-44-7.39-10.64-3.55-21.71-7.65-31.16-14-8.15-5.45-17-11.31-22.19-20.13q-6-10.17-6-25.12A41.28,41.28,0,0,1,972.4,594.87Z"/><path class="cls-9" d="M1235.72,434.41c-.15-13,4.63-25.75,14.08-34.81s22.38-13.39,35.43-12.94c39.24.77,78.2.77,117.36,2.6,10.55.28,22.09,6.4,29,14A47.51,47.51,0,0,1,1444,434.35a42.69,42.69,0,0,1-12.38,29.51A40.48,40.48,0,0,1,1401.74,475c-22.47-1-44.9-1.76-67.43-2.06v26c18.53.24,37,.76,55.48,1.5,12.48.52,24.12,6.39,32.86,14.91a42.23,42.23,0,0,1,12.8,29.37c.1,10.56-5,22.27-13.23,28.65-9.44,7.38-19.57,10.78-32,10.74-18.63-.75-37.23-1.28-55.9-1.53v26.47c21.38.28,42.68.94,64,1.89a50.39,50.39,0,0,1,32.87,14.39,45,45,0,0,1,13.65,31.39c.1,10.66-5.42,21.92-13.44,28.8a45.44,45.44,0,0,1-31.8,10.84c-38.3-1.73-76.42-1.72-114.8-2.47-8.82.07-19.64-4.32-26.46-9.33-7.42-5.46-15.3-15-18.78-23.82a48.41,48.41,0,0,1-3.84-18.95Z"/><path class="cls-9" d="M1619.39,506.27c-.22-4.59-1.57-8.91-4.69-12.23a16.28,16.28,0,0,0-11.1-5.37q-21.36-1.41-42.68-3v36.7q20.47,1.5,41,2.85a15.83,15.83,0,0,0,13.23-4.94C1618.54,516.68,1619.66,511.73,1619.39,506.27ZM1462.34,444.7c1-13.88,2.75-27.05,13.23-37.13,9.67-9.31,23.63-12.11,36.7-10.93,31.13,2.4,62.26,4.78,93.46,6.8,25.72,2.14,51.12,7.67,72.34,23.27,18.82,13.82,31.24,34.06,36.49,56.7a124.71,124.71,0,0,1,3.42,27.32,93.59,93.59,0,0,1-7.47,37.54A81.22,81.22,0,0,1,1689,577.42c-.69.66-1,1-1.71,1.67-3.93,3-5.89,4.47-9.82,7.43l-6,4.51q18.06,24.33,36.27,48.55c6.38,8.45,10.68,20.39,10.67,30.77,0,15.34-8.25,30.44-20.85,39.53-7.44,5.65-19.33,9.15-28.52,8.68-19-1-34.47-14.38-44.69-29.77q-31.83-49-63.42-98.1v72.64a45,45,0,0,1-14.14,33.75c-9.51,8.78-22.47,12.51-35.15,11.49a54.53,54.53,0,0,1-49.29-53.75Z"/><path class="cls-10" d="M260.24,425.14q24.33-30,48.65-59.95c11.18-12.81,25.9-24.9,43.53-25.45,9.3-.29,21.28,4,28.59,9.88a44.86,44.86,0,0,1,13.24,15A54.49,54.49,0,0,1,401.07,390c.2,8.72-3.66,20.16-9.81,26.66q-40.81,45.19-81.52,90.48v98a52.92,52.92,0,0,1-14.08,35.56,49.21,49.21,0,0,1-35,16.1,48,48,0,0,1-35-13.84,49.08,49.08,0,0,1-14.51-35.27v-98q-40.92-43.46-81.52-87.2c-6.39-6.41-10-18.13-9.81-26.84a62.4,62.4,0,0,1,1.28-12.57q1.27-5.33,6-13.65a45.75,45.75,0,0,1,12.81-14.32c9-5.57,18-11.06,29-10.93,18.39.24,31,10.82,43.1,23.48Q236.1,396.46,260.24,425.14Z"/><path class="cls-10" d="M506.91,435.94q-11.54,41-23,82.07,23-.16,46.09-.06Q518.45,476.94,506.91,435.94Zm-74.26-44.31c6.26-15.41,16-30.43,29.66-40.23,12.82-9.16,28.78-14.7,44.6-14.47,15.65.23,32,4.63,44.6,14.35a91.82,91.82,0,0,1,29.66,41q36.89,96.09,73.41,192.31,5.53,15.78,5.55,26.46c0,9.69-2.61,18.06-7.69,25.11s-13.11,12.41-22.19,15.6a55.13,55.13,0,0,1-20.48,3c-9.15-.35-20.67-4.83-27.75-10.56-8.43-6.82-14.5-16.27-18.35-26.52-1.87-5.69-2.81-8.54-4.69-14.23-34.57-.9-69.13-.67-103.71-.2l-5.12,14.16c-3.23,9.68-10.73,19.81-18.56,25.94-7.12,5.55-18.81,9.94-28,10a52.08,52.08,0,0,1-20.06-3.78c-17.92-7-30.06-22.41-29.87-41.94.07-7,1.85-15.86,5.55-26.22Q395.91,486.53,432.65,391.63Z"/><path class="cls-10" d="M665.67,392.07a44,44,0,0,1,14.51-33.45c9.66-8.62,22.66-12.37,35.42-11.36a52.6,52.6,0,0,1,34.57,17.14,53.52,53.52,0,0,1,14.09,36v61q43.59-44.5,86.63-89.56a56.07,56.07,0,0,1,14.51-10.67,35.77,35.77,0,0,1,9.82-3.15A58.42,58.42,0,0,1,886.31,357c8.67,0,19.65,3.45,26.89,8,7.41,4.62,15.09,13.92,18.35,22.05a58.19,58.19,0,0,1,4.27,21.1c.1,11.61-3.47,23.62-12.38,31.6C901.09,461,878.69,482.12,856,503c25.52,29.29,51.46,58.2,77.25,87.26,8.09,9,12.18,21,12.38,32.77.24,14.64-7.08,28.84-18.78,37.74a48.28,48.28,0,0,1-18.78,8.88c-2.28.29-4.5.85-6.4,1.26a35.49,35.49,0,0,1-6.4.37A47.1,47.1,0,0,1,859,654.13q-48-60.15-95.17-121v82.1a46.15,46.15,0,0,1-14.3,34.26,45.47,45.47,0,0,1-34.78,11.81c-13.32-1.08-25.66-7.72-34.57-17.56s-14.57-22.86-14.51-36.44Z"/><path class="cls-10" d="M956.73,585.91c6.58-10.53,17.75-17.39,30.3-16.72l6.83.34a57.43,57.43,0,0,1,8.11,2.13c7.51,2.46,11.27,3.7,18.78,6.22,6.83,2.12,10.24,3.2,17.07,5.36l12.38,3.84,4.69,1.62,7.26,1.8a132.75,132.75,0,0,0,15.36,2.42,36.28,36.28,0,0,0,6.83-.13,39,39,0,0,0,4.69-.71c5.13-1.31,8.75-2.81,10.89-4.5a8.21,8.21,0,0,0,3.2-6.79c0-2.56-1.43-4.95-4.27-7.16l-3.41-1.54-8.11-3.18-5.55-2.13c-9-2.91-13.57-4.35-22.62-7.23l-4.27-1.16q-14.06-5.05-28.17-10-11.94-4.18-21.55-8.55A120.2,120.2,0,0,1,987.46,530a78.84,78.84,0,0,1-26.89-29.49c-6.23-12-9.8-25.8-9.39-38.91.36-11.21,1.73-22.56,6.19-32.89a105.46,105.46,0,0,1,19.42-29.79c9.44-10.48,22.38-17.57,35.21-23.17,15-6.55,32.5-9.94,49.29-10.6a172.93,172.93,0,0,1,22.62.4,185.3,185.3,0,0,1,46.52,10.4c11.94,4.4,24.3,10,34.57,18.13a48.72,48.72,0,0,1,15.79,23.5,40.56,40.56,0,0,1,1.71,9.29c.28,3.58.43,5.51.43,5.79q0,13.23-6.83,22.16a36.64,36.64,0,0,1-33.29,15.53,101,101,0,0,1-26.46-6.28l-3.42-1.55-12.37-4.79-5.12-1.68-12-3.9-6-1.73-4.27-1.17-5.55-.84c-7.68-.57-13,.2-15.79,2.27s-4.26,4.4-4.26,7a6.59,6.59,0,0,0,2.56,4.87l6.83,3.48,8.1,2.72,3,1.07,8.54,2.77,14.08,4.48,28.17,9.85A229.13,229.13,0,0,1,1156,503.71c14,8.13,27.39,20,35,34.2a99.64,99.64,0,0,1,12.38,44.51c.44,10-2,22.07-5.55,31.46-4.07,10.81-11,19.94-18.35,28.9-13.15,14.58-31.42,24.89-50.36,29.42-24.89,5.93-51.36,6.14-76.39,4.26-14.67-1.1-30-3-44-7.75-10.64-3.63-21.71-7.8-31.16-14.16-8.15-5.5-17-11.4-22.19-20.24q-6-10.2-6-25.14A41.14,41.14,0,0,1,956.73,585.91Z"/><path class="cls-10" d="M1220.05,427.59c-.15-13,4.62-25.72,14.09-34.73s22.4-13.27,35.42-12.78c39.21.88,78.22.75,117.36,2.13,10.41.09,22.16,6.15,29,13.59a46.71,46.71,0,0,1,12.38,30.9,43,43,0,0,1-12.38,29.71A40.67,40.67,0,0,1,1386.07,468q-33.71-1.17-67.43-1.54v26q27.78.27,55.48,1.13c12.43.37,24.09,6.06,32.86,14.49a41.45,41.45,0,0,1,12.81,29.18c.06,10.72-5,22.21-13.23,28.84a48.84,48.84,0,0,1-32,11.15q-28-.84-55.91-1.14v26.46q32.05.32,64,1.42a49.78,49.78,0,0,1,32.86,13.94,44.11,44.11,0,0,1,13.65,31.17c.08,10.83-5.37,21.94-13.44,29a45.63,45.63,0,0,1-31.79,11.27c-38.29-1.3-76.46-1.17-114.81-2-8.84,0-19.65-4.4-26.46-9.45-7.42-5.5-15.3-15-18.78-23.92a48.63,48.63,0,0,1-3.84-19Z"/><path class="cls-10" d="M1603.72,495.47c-.22-4.59-1.56-8.89-4.69-12.16a16,16,0,0,0-11.1-5.21q-21.35-1.05-42.67-2.22v36.71q20.48,1.11,41,2.13a16.09,16.09,0,0,0,13.23-5.15C1602.87,505.89,1604,500.92,1603.72,495.47Zm-157-58.74c1-14,2.8-27.13,13.23-37.37,9.62-9.43,23.53-12.55,36.7-11.61,31.14,1.79,62.27,3.58,93.47,5.1,25.7,1.81,51,6.91,72.34,22.41,18.85,13.72,31.24,34,36.48,56.56a124,124,0,0,1,3.42,27.31,93.59,93.59,0,0,1-7.47,37.54,81.8,81.8,0,0,1-21.55,29.23c-.68.67-1,1-1.71,1.68l-9.81,7.49-6,4.56q18.07,24.23,36.28,48.36c6.43,8.28,10.67,20.52,10.67,30.76,0,15.35-8.27,30.45-20.86,39.57-7.44,5.67-19.31,9.25-28.52,8.85-18.85-.84-34.58-13.92-44.69-29.26q-31.8-48.46-63.41-97V653.5a45.94,45.94,0,0,1-14.15,34c-9.45,8.91-22.37,12.94-35.15,12.16a53.26,53.26,0,0,1-49.29-52.82Z"/><path class="cls-11" d="M244.57,411.73q24.33-29.75,48.65-59.5c11.3-12.64,25.9-24.68,43.53-25,9.32-.19,21.3,4.17,28.6,10.14a45.53,45.53,0,0,1,13.23,15.12,54.94,54.94,0,0,1,6.83,25.46c.2,8.7-3.66,20.12-9.82,26.58q-40.79,44.83-81.52,89.73v98A52.42,52.42,0,0,1,280,627.69a48.45,48.45,0,0,1-70,1.65A49.51,49.51,0,0,1,195.49,594v-98Q154.63,452.27,114,408.39c-6.39-6.41-10-18.13-9.81-26.84A62.5,62.5,0,0,1,105.44,369q1.28-5.31,6-13.64A45.61,45.61,0,0,1,124.22,341c9-5.55,18-11,29-10.83,18.42.31,31.06,11,43.1,23.71Q220.43,382.84,244.57,411.73Z"/><path class="cls-11" d="M491.24,424.34l-23,82c15.36-.07,30.72-.11,46.09,0Q502.79,465.35,491.24,424.34ZM417,379.74c6.26-15.36,16-30.34,29.67-40.07,12.83-9.11,28.79-14.58,44.59-14.35s32,4.66,44.6,14.42a92.2,92.2,0,0,1,29.66,41.1q36.9,96.36,73.41,192.85,5.54,15.82,5.55,26.51c0,9.69-2.59,18-7.68,25s-13,12.22-22.2,15.42a54.82,54.82,0,0,1-20.48,2.89c-9.16-.41-20.68-4.95-27.74-10.72A61.63,61.63,0,0,1,548,606.22c-1.87-5.71-2.81-8.56-4.69-14.25-34.57-1-69.13-.76-103.71-.45-2,5.65-3.07,8.48-5.12,14.14-3.17,9.58-10.78,19.81-18.56,25.82-7.12,5.49-18.83,9.81-28,9.79a52.32,52.32,0,0,1-20.06-3.94c-18-7.16-30-22.57-29.87-42.2.06-7.07,1.85-15.85,5.55-26.17Q380.26,474.34,417,379.74Z"/><path class="cls-11" d="M650,381.29A43.57,43.57,0,0,1,664.51,348c9.68-8.55,22.7-12.15,35.42-11a53.21,53.21,0,0,1,34.57,17.47,54,54,0,0,1,14.09,36.16v61q43.62-44.16,86.63-88.93a55.65,55.65,0,0,1,14.51-10.6,35.82,35.82,0,0,1,9.82-3.12,60,60,0,0,1,11.1-1c8.67,0,19.64,3.48,26.88,8,7.42,4.62,15.1,13.92,18.35,22.06a58.28,58.28,0,0,1,4.27,21.11c.1,11.6-3.47,23.61-12.37,31.58-22.35,21.19-44.73,42.31-67.44,63.11,25.49,29.38,51.46,58.32,77.25,87.42,8.09,9,12.18,21,12.38,32.8.24,14.64-7.08,28.82-18.78,37.7a48.56,48.56,0,0,1-18.78,8.88c-2.28.28-4.5.84-6.4,1.25a35.73,35.73,0,0,1-6.4.35A47.11,47.11,0,0,1,843.33,645q-48.09-60.45-95.17-121.67v82.1a45.65,45.65,0,0,1-14.3,34.12A45.07,45.07,0,0,1,699.08,651c-13.35-1.22-25.67-8-34.57-17.89S650,610.14,650,596.52Z"/><path class="cls-11" d="M941.06,576.94c6.58-10.5,17.77-17.31,30.31-16.56l6.82.37a58.91,58.91,0,0,1,8.11,2.19c7.51,2.51,11.27,3.78,18.78,6.35,6.83,2.18,10.24,3.29,17.07,5.51,4.95,1.57,7.43,2.36,12.38,4l4.69,1.65,7.26,1.87a132.41,132.41,0,0,0,15.36,2.56,37.11,37.11,0,0,0,6.83-.06,37.84,37.84,0,0,0,4.7-.67q7.68-1.89,10.88-4.39a8.15,8.15,0,0,0,3.2-6.77c0-2.56-1.43-5-4.27-7.2l-3.41-1.57-8.11-3.26-5.55-2.18c-9-3-13.57-4.48-22.62-7.43l-4.27-1.2q-14.06-5.19-28.16-10.26-12-4.26-21.56-8.71a120.62,120.62,0,0,1-17.71-10,79.49,79.49,0,0,1-26.88-29.62c-6.24-12-9.81-25.83-9.39-38.95.35-11.14,1.68-22.56,6.18-32.86A105.62,105.62,0,0,1,961.12,390c9.44-10.44,22.38-17.44,35.21-22.95,15-6.44,32.52-9.68,49.3-10.19a172.24,172.24,0,0,1,22.61.61,186.23,186.23,0,0,1,46.52,10.85c12,4.52,24.3,10.22,34.57,18.45a49.36,49.36,0,0,1,15.79,23.63,40.32,40.32,0,0,1,1.71,9.31c.28,3.58.43,5.51.43,5.79q0,13.23-6.83,22.1a36.26,36.26,0,0,1-33.29,15.23,101.48,101.48,0,0,1-26.46-6.53l-3.41-1.58-12.38-4.91-5.12-1.72-12-4-6-1.79-4.26-1.21-5.55-.89q-11.54-1-15.79,2.13t-4.27,6.92a6.68,6.68,0,0,0,2.56,4.9l6.83,3.53,8.11,2.79,3,1.11,8.54,2.84,14.08,4.62,28.17,10.12a230.74,230.74,0,0,1,37.13,17.23c14,8.26,27.38,20.22,35,34.5a100.33,100.33,0,0,1,12.37,44.61c.44,9.93-2,22-5.55,31.41-4.07,10.77-11,19.85-18.35,28.76-13.16,14.47-31.45,24.62-50.36,29-24.92,5.71-51.39,5.64-76.39,3.54-14.68-1.23-30-3.25-44-8.1-10.65-3.7-21.71-7.95-31.15-14.36-8.16-5.54-17-11.48-22.2-20.34q-6-10.22-6-25.16A41,41,0,0,1,941.06,576.94Z"/><path class="cls-11" d="M1204.38,420.76c-.15-13,4.61-25.67,14.09-34.64s22.42-13.16,35.42-12.62c39.17,1,78.23.74,117.37,1.66,10.27-.1,22.22,5.89,29,13.18a46,46,0,0,1,12.37,30.7A43.34,43.34,0,0,1,1400.28,449a40.93,40.93,0,0,1-29.88,12q-33.7-.78-67.43-1v26q27.77.18,55.48.75c12.38.23,24.06,5.75,32.86,14.08a40.63,40.63,0,0,1,12.81,29c0,10.89-5,22.17-13.23,29a48.64,48.64,0,0,1-32,11.55q-28-.55-55.91-.76V596q32,.21,64,1a49.19,49.19,0,0,1,32.86,13.49,43.26,43.26,0,0,1,13.66,30.95c0,11-5.33,22-13.45,29.23a45.87,45.87,0,0,1-31.79,11.71c-38.28-.86-76.49-.62-114.81-1.59-8.85,0-19.66-4.49-26.46-9.56-7.42-5.54-15.29-15.12-18.77-24a48.77,48.77,0,0,1-3.85-19Z"/><path class="cls-11" d="M1588.06,484.66c-.23-4.59-1.57-8.87-4.7-12.09a15.68,15.68,0,0,0-11.1-5q-21.35-.71-42.67-1.48v36.7q20.48.75,41,1.43a16.37,16.37,0,0,0,13.23-5.36C1587.2,495.09,1588.33,490.11,1588.06,484.66ZM1431,428.77c1-14,2.85-27.23,13.23-37.61,9.57-9.57,23.44-13,36.7-12.31,31.15,1.2,62.29,2.39,93.47,3.4,25.7,1.49,51,6.16,72.34,21.55,18.88,13.62,31.26,33.86,36.49,56.42a124.5,124.5,0,0,1,3.41,27.31,93.67,93.67,0,0,1-7.47,37.55,82.43,82.43,0,0,1-21.55,29.3l-1.71,1.68-9.81,7.56-6,4.61q18.11,24.1,36.28,48.17c6.49,8.11,10.67,20.65,10.67,30.75,0,15.36-8.29,30.46-20.86,39.61-7.43,5.7-19.29,9.34-28.51,9C1619,695.12,1603,682.31,1593,667q-31.77-48-63.41-96v72.64A46.82,46.82,0,0,1,1515.44,678c-9.39,9-22.28,13.36-35.15,12.84A52.05,52.05,0,0,1,1431,638.89Z"/><path class="cls-12" d="M228.9,398.32q24.33-29.52,48.65-59.05c11.42-12.48,25.9-24.46,43.53-24.61,9.34-.09,21.32,4.38,28.6,10.39a46.16,46.16,0,0,1,13.23,15.24,55.26,55.26,0,0,1,6.83,25.51c.2,8.68-3.65,20.07-9.82,26.5q-40.77,44.47-81.51,89v98a52,52,0,0,1-14.09,35.29,48.31,48.31,0,0,1-35,15.46,49,49,0,0,1-35-14.42,49.86,49.86,0,0,1-14.51-35.48v-98Q139,438.24,98.31,394.25c-6.39-6.41-10-18.14-9.82-26.84a63.9,63.9,0,0,1,1.28-12.58q1.28-5.32,6-13.64a45.43,45.43,0,0,1,12.81-14.29c9-5.54,18-11,29-10.75,18.46.4,31.09,11.19,43.1,24Q204.78,369.23,228.9,398.32Z"/><path class="cls-12" d="M475.58,412.73q-11.54,41-23.05,82c15.36,0,30.73-.07,46.09,0Q487.13,453.75,475.58,412.73Zm-74.26-44.88c6.25-15.32,16-30.24,29.66-39.9,12.84-9.08,28.82-14.48,44.6-14.23s32,4.68,44.59,14.48a92.58,92.58,0,0,1,29.66,41.23q36.93,96.6,73.41,193.38,5.55,15.87,5.55,26.56c0,9.69-2.58,18-7.68,25s-12.81,12-22.2,15.23a54.54,54.54,0,0,1-20.48,2.75c-9.18-.49-20.68-5.08-27.74-10.91a61.18,61.18,0,0,1-18.35-26.69l-4.7-14.27c-34.56-1.12-69.13-.85-103.7-.69-2.05,5.64-3.08,8.46-5.13,14.11-3.11,9.49-10.84,19.82-18.56,25.71-7.12,5.44-18.85,9.69-28,9.59a52.09,52.09,0,0,1-20.05-4.11c-18-7.32-30-22.72-29.88-42.47.05-7.07,1.86-15.82,5.55-26.11Q364.6,462.16,401.32,367.85Z"/><path class="cls-12" d="M634.33,370.5a43.19,43.19,0,0,1,14.51-33.18c9.71-8.48,22.74-11.94,35.43-10.68a53.8,53.8,0,0,1,34.56,17.8,54.52,54.52,0,0,1,14.09,36.29v61q43.67-43.81,86.63-88.3a55.28,55.28,0,0,1,14.52-10.53,35.46,35.46,0,0,1,9.81-3.09,59.83,59.83,0,0,1,11.1-1c8.67.07,19.64,3.51,26.88,8,7.43,4.62,15.1,13.94,18.36,22.08a58.54,58.54,0,0,1,4.26,21.12c.1,11.6-3.47,23.6-12.37,31.56-22.33,21.16-44.7,42.24-67.43,63,25.46,29.45,51.44,58.42,77.24,87.58,8.09,9,12.18,21,12.38,32.83.24,14.62-7.08,28.79-18.78,37.65a48.55,48.55,0,0,1-18.78,8.87c-2.28.28-4.5.83-6.4,1.24a34,34,0,0,1-6.4.35,47.16,47.16,0,0,1-36.28-17.36Q779.53,575,732.49,513.42v82.1a45.27,45.27,0,0,1-14.3,34,44.71,44.71,0,0,1-34.78,11.15c-13.38-1.35-25.69-8.25-34.57-18.22s-14.55-23.06-14.51-36.72Z"/><path class="cls-12" d="M925.4,568c6.58-10.49,17.78-17.24,30.3-16.42,2.26.15,4.54.28,6.83.42a60.11,60.11,0,0,1,8.1,2.24c7.52,2.56,11.27,3.86,18.78,6.49,6.83,2.23,10.25,3.36,17.07,5.64l12.38,4.06,4.7,1.69,7.25,1.94a136.58,136.58,0,0,0,15.36,2.7,37.1,37.1,0,0,0,6.83,0,38.38,38.38,0,0,0,4.7-.62q7.68-1.83,10.88-4.29a8,8,0,0,0,3.2-6.73c0-2.56-1.43-5-4.27-7.24l-3.41-1.61-8.11-3.34-5.55-2.23c-9-3.08-13.57-4.61-22.62-7.64l-4.26-1.24q-14.07-5.31-28.17-10.49-12-4.37-21.55-8.88a122.05,122.05,0,0,1-17.72-10.11,80.29,80.29,0,0,1-26.88-29.76c-6.23-12-9.81-25.85-9.39-39,.35-11.08,1.64-22.57,6.19-32.85a105.73,105.73,0,0,1,19.41-29.61c9.44-10.38,22.39-17.31,35.21-22.72,15-6.34,32.54-9.43,49.3-9.78a171.93,171.93,0,0,1,22.62.82,187.88,187.88,0,0,1,46.51,11.29c12,4.64,24.3,10.48,34.57,18.78,7,5.62,13.41,15,15.79,23.77a40.31,40.31,0,0,1,1.71,9.32q.43,5.37.43,5.79,0,13.23-6.83,22.05a36,36,0,0,1-33.29,14.93,102.17,102.17,0,0,1-26.46-6.79L1081.6,447l-12.38-5-5.12-1.77L1052.15,436l-6-1.85-4.26-1.25-5.55-.94q-11.52-1.06-15.79,2t-4.27,6.88a6.75,6.75,0,0,0,2.56,4.92l6.83,3.59,8.11,2.87,3,1.13c3.42,1.17,5.13,1.75,8.54,2.93l14.08,4.74q14.1,5.19,28.17,10.4A233.59,233.59,0,0,1,1124.7,489c14,8.39,27.38,20.46,35,34.81a100.87,100.87,0,0,1,12.37,44.7c.45,9.92-2,22-5.54,31.37-4.07,10.74-11,19.76-18.36,28.61-13.16,14.37-31.47,24.35-50.36,28.5-25,5.47-51.42,5.13-76.39,2.82-14.69-1.37-30-3.52-44-8.46-10.65-3.78-21.71-8.1-31.15-14.56-8.15-5.58-17-11.56-22.19-20.44q-6-10.25-6-25.19A40.8,40.8,0,0,1,925.4,568Z"/><path class="cls-12" d="M1188.72,413.93c-.16-13,4.59-25.63,14.08-34.55s22.45-13,35.42-12.46c39.14,1.1,78.24.72,117.37,1.18,10.13-.28,22.29,5.64,29,12.78a45.25,45.25,0,0,1,12.37,30.5,43.61,43.61,0,0,1-12.37,30.11,41.08,41.08,0,0,1-29.88,12.38q-33.7-.39-67.43-.51v26q27.75.09,55.48.38c12.34.08,24,5.42,32.87,13.65a39.89,39.89,0,0,1,12.8,28.79,39.24,39.24,0,0,1-13.23,29.25,48.56,48.56,0,0,1-32,12q-28-.28-55.91-.38V589.5q32,.11,64,.48a48.61,48.61,0,0,1,32.86,13,42.37,42.37,0,0,1,13.66,30.73c0,11.17-5.28,22-13.45,29.45a46.18,46.18,0,0,1-31.79,12.15c-38.27-.44-76.52-.09-114.8-1.16-8.87,0-19.67-4.57-26.46-9.68-7.43-5.58-15.3-15.2-18.78-24.14a49,49,0,0,1-3.84-19Z"/><path class="cls-12" d="M1572.39,473.85c-.23-4.59-1.57-8.84-4.7-12A15.43,15.43,0,0,0,1556.6,457q-21.35-.35-42.68-.74v36.7q20.47.38,41,.72a16.65,16.65,0,0,0,13.23-5.56C1571.53,484.3,1572.66,479.29,1572.39,473.85ZM1415.33,420.8c1-14.13,2.9-27.32,13.23-37.85,9.52-9.7,23.34-13.45,36.71-13q46.71.9,93.46,1.7c25.7,1.16,50.92,5.4,72.34,20.7,18.92,13.51,31.27,33.75,36.49,56.26a124.58,124.58,0,0,1,3.41,27.32,93.67,93.67,0,0,1-7.47,37.55A82.8,82.8,0,0,1,1642,542.85l-1.71,1.7c-3.92,3.05-5.88,4.58-9.81,7.62l-6,4.65q18.12,24,36.28,48c6.55,7.94,10.67,20.78,10.67,30.74,0,15.37-8.3,30.46-20.86,39.65-7.43,5.72-19.27,9.44-28.51,9.21-18.53-.49-34.8-13-44.7-28.25q-31.74-47.46-63.41-94.94v72.63a47.72,47.72,0,0,1-14.15,34.55,48.71,48.71,0,0,1-35.14,13.51,50.87,50.87,0,0,1-49.3-51Z"/><path class="cls-13" d="M213.23,384.91l48.65-58.6c11.54-12.31,25.9-24.24,43.54-24.2,9.35,0,21.32,4.59,28.59,10.66a46.62,46.62,0,0,1,13.23,15.34,55.66,55.66,0,0,1,6.83,25.58c.21,8.64-3.64,20-9.82,26.42l-81.51,88.22v98a51.5,51.5,0,0,1-14.09,35.16,47.83,47.83,0,0,1-35,15.13,49.42,49.42,0,0,1-35-14.7,50.31,50.31,0,0,1-14.51-35.59v-98L82.64,380.11c-6.39-6.42-10-18.14-9.82-26.85a64,64,0,0,1,1.28-12.58q1.28-5.31,6-13.63a45.14,45.14,0,0,1,12.8-14.28c9-5.51,18-10.94,29-10.66,18.49.48,31.11,11.37,43.11,24.2Z"/><path class="cls-13" d="M385.65,356c6.25-15.27,16-30.14,29.66-39.74,12.86-9,28.84-14.36,44.6-14.11s32,4.72,44.6,14.54A93.2,93.2,0,0,1,534.17,358q36.95,96.87,73.4,193.92,5.55,15.92,5.55,26.61,0,14.54-7.68,24.9c-5.12,6.91-12.65,11.84-22.19,15a54.36,54.36,0,0,1-20.49,2.59c-9.2-.55-20.68-5.2-27.74-11.08a61,61,0,0,1-18.35-26.78L512,568.93c-34.56-1.23-69.13-.93-103.7-.93-2,5.63-3.08,8.45-5.12,14.08-3.06,9.4-10.9,19.82-18.57,25.61-7.13,5.37-18.87,9.56-27.95,9.39a52.56,52.56,0,0,1-20.06-4.28c-18-7.5-30-22.89-29.88-42.74,0-7.08,1.86-15.81,5.55-26.06Zm74.26,45.17q-11.54,41-23.05,81.94c15.37,0,30.73,0,46.09.11Q471.46,442.14,459.91,401.13Z"/><path class="cls-13" d="M618.66,359.72a42.8,42.8,0,0,1,14.51-33.05c9.74-8.41,22.79-11.73,35.43-10.34a54.39,54.39,0,0,1,34.57,18.13,55,55,0,0,1,14.08,36.42v61q43.69-43.47,86.64-87.67a55.35,55.35,0,0,1,14.51-10.47,35.66,35.66,0,0,1,9.81-3,58.8,58.8,0,0,1,11.1-1c8.68.08,19.63,3.53,26.89,8.05,7.42,4.63,15.09,13.95,18.35,22.1a58.86,58.86,0,0,1,4.27,21.13c.09,11.59-3.47,23.58-12.38,31.54-22.31,21.13-44.68,42.17-67.43,62.82C834.44,505,860.45,534,886.25,563.15c8.08,9,12.18,21,12.38,32.86.25,14.62-7.07,28.77-18.78,37.62a48.66,48.66,0,0,1-18.78,8.85c-2.28.28-4.5.83-6.4,1.24a34.83,34.83,0,0,1-6.4.34A47.22,47.22,0,0,1,812,626.59q-48.19-61-95.17-123v82.11a44.8,44.8,0,0,1-14.29,33.86c-9.42,8.57-22.23,12.21-34.79,10.82-13.41-1.49-25.7-8.51-34.57-18.55S618.62,588.65,618.66,575Z"/><path class="cls-13" d="M909.73,559c6.58-10.47,17.8-17.16,30.3-16.27,2.26.17,4.55.31,6.83.47A59.55,59.55,0,0,1,955,545.5c7.51,2.61,11.26,3.94,18.77,6.63,6.83,2.28,10.25,3.44,17.08,5.78,4.95,1.65,7.42,2.48,12.37,4.16l4.7,1.73,7.25,2a134.57,134.57,0,0,0,15.37,2.85,37,37,0,0,0,6.82.07,38.4,38.4,0,0,0,4.7-.58q7.68-1.75,10.88-4.19a8,8,0,0,0,3.2-6.7q0-3.84-4.26-7.28l-3.42-1.64-8.11-3.41-5.55-2.29c-9-3.16-13.57-4.74-22.62-7.85l-4.26-1.28q-14.05-5.43-28.17-10.73-12-4.46-21.55-9a125.22,125.22,0,0,1-17.71-10.23,80.88,80.88,0,0,1-26.89-29.9c-6.22-12-9.81-25.88-9.39-39,.35-11,1.6-22.57,6.19-32.82a105.69,105.69,0,0,1,19.42-29.52c9.43-10.34,22.38-17.18,35.21-22.5,15-6.23,32.55-9.17,49.29-9.37a171.32,171.32,0,0,1,22.62,1,188.84,188.84,0,0,1,46.52,11.74c12,4.75,24.29,10.73,34.57,19.09,6.89,5.61,13.45,15.22,15.79,23.91a41.18,41.18,0,0,1,1.7,9.33c.29,3.58.43,5.52.43,5.8q0,13.25-6.83,22a35.6,35.6,0,0,1-33.29,14.63,102.74,102.74,0,0,1-26.46-7l-3.41-1.64-12.38-5.15-5.12-1.82-12-4.25-6-1.9-4.27-1.29-5.55-1q-11.52-1.17-15.79,1.84t-4.27,6.85a6.82,6.82,0,0,0,2.56,4.94l6.83,3.65,8.11,2.94,3,1.16,8.53,3c5.64,1.94,8.45,2.92,14.09,4.88l28.16,10.66A237.05,237.05,0,0,1,1109,481.68c14,8.52,27.37,20.68,35,35.1a101.6,101.6,0,0,1,12.38,44.8c.44,9.91-2,22-5.55,31.33-4.06,10.7-11,19.66-18.35,28.46-13.18,14.27-31.51,24.09-50.36,28-25,5.25-51.46,4.64-76.4,2.1-14.7-1.49-30-3.78-44-8.82-10.65-3.85-21.71-8.24-31.15-14.75-8.15-5.62-17-11.64-22.19-20.55q-6-10.25-6-25.2A40.77,40.77,0,0,1,909.73,559Z"/><path class="cls-13" d="M1173.05,407.1c-.17-12.94,4.58-25.58,14.08-34.47s22.47-12.92,35.42-12.29c39.1,1.21,78.25.71,117.37.71,10-.47,22.36,5.39,29,12.37a44.52,44.52,0,0,1,12.38,30.31,44,44,0,0,1-12.38,30.3,41.3,41.3,0,0,1-29.87,12.8h-67.44v26h55.48c12.29-.06,24,5.11,32.87,13.23a39.14,39.14,0,0,1,12.8,28.6,39.87,39.87,0,0,1-13.23,29.45,48.44,48.44,0,0,1-32,12.37h-55.91V583h64a48.17,48.17,0,0,1,32.86,12.59,41.57,41.57,0,0,1,13.66,30.52c0,11.34-5.23,22-13.44,29.66a46.45,46.45,0,0,1-31.8,12.59c-38.26,0-76.55.46-114.8-.72-8.88-.05-19.68-4.66-26.46-9.79-7.43-5.63-15.29-15.29-18.78-24.26a49.11,49.11,0,0,1-3.84-19Z"/><path class="cls-13" d="M1399.66,412.83c1-14.21,2.95-27.41,13.23-38.09,9.47-9.83,23.25-13.9,36.71-13.69h93.46c25.69.84,50.85,4.65,72.34,19.84,19,13.41,31.28,33.65,36.49,56.12a125.25,125.25,0,0,1,3.42,27.32,93.81,93.81,0,0,1-7.47,37.55,83.63,83.63,0,0,1-21.56,29.45l-1.7,1.71-9.82,7.68-6,4.7,36.27,47.79c6.61,7.78,10.67,20.92,10.67,30.73,0,15.39-8.31,30.48-20.86,39.69-7.43,5.75-19.24,9.55-28.51,9.39-18.36-.3-34.91-12.58-44.69-27.74l-63.42-93.89V624a48.72,48.72,0,0,1-14.14,34.82A49.7,49.7,0,0,1,1399.66,623Zm157.06,50.22c-.23-4.59-1.57-8.82-4.7-11.95a15.14,15.14,0,0,0-11.09-4.7h-42.68v36.71h41a16.87,16.87,0,0,0,13.23-5.77C1555.87,473.5,1557,468.48,1556.72,463.05Z"/></svg>