<svg id="Слой_1" data-name="Слой 1" xmlns="http://www.w3.org/2000/svg" xmlns:xlink="http://www.w3.org/1999/xlink" viewBox="0 0 1920 1920"><defs><style>.cls-1{fill:url(#Безымянный_градиент_27);}.cls-2{fill:url(#Безымянный_градиент_27-2);}.cls-3{fill:url(#Безымянный_градиент_27-3);}.cls-4{fill:url(#Безымянный_градиент_27-4);}.cls-5{fill:url(#Безымянный_градиент_27-5);}.cls-6{fill:url(#Безымянный_градиент_27-6);}.cls-7{fill:url(#Безымянный_градиент_27-7);}.cls-8{fill:url(#Безымянный_градиент_27-8);}.cls-9{fill:url(#Безымянный_градиент_27-9);}.cls-10{fill:url(#Безымянный_градиент_27-10);}.cls-11{fill:url(#Безымянный_градиент_27-11);}.cls-12{fill:url(#Безымянный_градиент_27-12);}.cls-13{fill:url(#Безымянный_градиент_27-13);}.cls-14{fill:url(#Безымянный_градиент_27-14);}.cls-15{fill:url(#Безымянный_градиент_27-15);}.cls-16{fill:url(#Безымянный_градиент_27-16);}.cls-17{fill:url(#Безымянный_градиент_27-17);}.cls-18{fill:url(#Безымянный_градиент_27-18);}.cls-19{fill:url(#Безымянный_градиент_27-19);}.cls-20{fill:url(#Безымянный_градиент_27-20);}.cls-21{fill:url(#Безымянный_градиент_27-21);}.cls-22{fill:url(#Безымянный_градиент_27-22);}.cls-23{fill:url(#Безымянный_градиент_27-23);}.cls-24{fill:url(#Безымянный_градиент_27-24);}.cls-25{fill:url(#Безымянный_градиент_27-25);}.cls-26{fill:url(#Безымянный_градиент_27-26);}.cls-27{fill:url(#Безымянный_градиент_27-27);}.cls-28{fill:url(#Безымянный_градиент_27-28);}.cls-29{fill:url(#Безымянный_градиент_27-29);}.cls-30{fill:url(#Безымянный_градиент_27-30);}.cls-31{fill:url(#Безымянный_градиент_27-31);}.cls-32{fill:url(#Безымянный_градиент_27-32);}</style><linearGradient id="Безымянный_градиент_27" x1="484.4" y1="966.41" x2="1299.03" y2="966.41" gradientUnits="userSpaceOnUse"><stop offset="0" stop-color="#7fd9ff"/><stop offset="1" stop-color="#2a8bff"/></linearGradient><linearGradient id="Безымянный_градиент_27-2" x1="776.84" y1="188.35" x2="1077.2" y2="188.35" xlink:href="#Безымянный_градиент_27"/><linearGradient id="Безымянный_градиент_27-3" x1="757.63" y1="165.59" x2="1078.98" y2="165.59" xlink:href="#Безымянный_градиент_27"/><linearGradient id="Безымянный_градиент_27-4" x1="764.34" y1="122.95" x2="822.91" y2="122.95" xlink:href="#Безымянный_градиент_27"/><linearGradient id="Безымянный_градиент_27-5" x1="1120.75" y1="390.12" x2="1169.46" y2="390.12" xlink:href="#Безымянный_градиент_27"/><linearGradient id="Безымянный_градиент_27-6" x1="1145.07" y1="718.5" x2="1306" y2="718.5" xlink:href="#Безымянный_градиент_27"/><linearGradient id="Безымянный_градиент_27-7" x1="440.66" y1="1013.96" x2="505.81" y2="1013.96" xlink:href="#Безымянный_градиент_27"/><linearGradient id="Безымянный_градиент_27-8" x1="445.79" y1="1071.82" x2="472.15" y2="1071.82" xlink:href="#Безымянный_градиент_27"/><linearGradient id="Безымянный_градиент_27-9" x1="562.41" y1="649.93" x2="807.32" y2="649.93" xlink:href="#Безымянный_градиент_27"/><linearGradient id="Безымянный_градиент_27-10" x1="681" y1="651.42" x2="728.44" y2="651.42" xlink:href="#Безымянный_градиент_27"/><linearGradient id="Безымянный_градиент_27-11" x1="889.15" y1="646.7" x2="1126.4" y2="646.7" xlink:href="#Безымянный_градиент_27"/><linearGradient id="Безымянный_градиент_27-12" x1="971.69" y1="633.56" x2="1029.85" y2="633.56" xlink:href="#Безымянный_градиент_27"/><linearGradient id="Безымянный_градиент_27-13" x1="692.78" y1="1401.65" x2="739.04" y2="1401.65" xlink:href="#Безымянный_градиент_27"/><linearGradient id="Безымянный_градиент_27-14" x1="718.01" y1="1245.26" x2="1135.39" y2="1245.26" xlink:href="#Безымянный_градиент_27"/><linearGradient id="Безымянный_градиент_27-15" x1="1103.57" y1="1002.19" x2="1148.77" y2="1002.19" xlink:href="#Безымянный_градиент_27"/><linearGradient id="Безымянный_градиент_27-16" x1="1308.63" y1="948.21" x2="1366.67" y2="948.21" xlink:href="#Безымянный_градиент_27"/><linearGradient id="Безымянный_градиент_27-17" x1="1291.06" y1="529.57" x2="1344.29" y2="529.57" xlink:href="#Безымянный_градиент_27"/><linearGradient id="Безымянный_градиент_27-18" x1="1328.22" y1="744.48" x2="1373.32" y2="744.48" xlink:href="#Безымянный_градиент_27"/><linearGradient id="Безымянный_градиент_27-19" x1="1320.78" y1="575.32" x2="1342.41" y2="575.32" xlink:href="#Безымянный_градиент_27"/><linearGradient id="Безымянный_градиент_27-20" x1="1315.49" y1="578.99" x2="1338.91" y2="578.99" xlink:href="#Безымянный_градиент_27"/><linearGradient id="Безымянный_градиент_27-21" x1="1291.58" y1="995.39" x2="1593.5" y2="995.39" xlink:href="#Безымянный_градиент_27"/><linearGradient id="Безымянный_градиент_27-22" x1="1517.05" y1="1122.52" x2="1518.8" y2="1122.52" xlink:href="#Безымянный_градиент_27"/><linearGradient id="Безымянный_градиент_27-23" x1="1511.55" y1="1162.73" x2="1526.04" y2="1162.73" xlink:href="#Безымянный_градиент_27"/><linearGradient id="Безымянный_градиент_27-24" x1="1514.22" y1="1349.78" x2="1527.89" y2="1349.78" xlink:href="#Безымянный_градиент_27"/><linearGradient id="Безымянный_градиент_27-25" x1="1513.38" y1="1390.97" x2="1527.8" y2="1390.97" xlink:href="#Безымянный_градиент_27"/><linearGradient id="Безымянный_градиент_27-26" x1="1527.71" y1="1532.96" x2="1541.68" y2="1532.96" xlink:href="#Безымянный_градиент_27"/><linearGradient id="Безымянный_градиент_27-27" x1="1521.52" y1="1577.89" x2="1531.12" y2="1577.89" xlink:href="#Безымянный_градиент_27"/><linearGradient id="Безымянный_градиент_27-28" x1="1513.36" y1="1167.82" x2="1524.15" y2="1167.82" xlink:href="#Безымянный_градиент_27"/><linearGradient id="Безымянный_градиент_27-29" x1="1511.78" y1="1117.58" x2="1520.55" y2="1117.58" xlink:href="#Безымянный_градиент_27"/><linearGradient id="Безымянный_градиент_27-30" x1="1193.34" y1="253.21" x2="1264.57" y2="253.21" xlink:href="#Безымянный_градиент_27"/><linearGradient id="Безымянный_градиент_27-31" x1="1372.93" y1="167.3" x2="1393.89" y2="167.3" xlink:href="#Безымянный_градиент_27"/><linearGradient id="Безымянный_градиент_27-32" x1="1547.52" y1="321.35" x2="1592.63" y2="321.35" xlink:href="#Безымянный_градиент_27"/></defs><title>Монтажная область 1111</title><path class="cls-1" d="M502.62,531.43c59.43-22,84.35-84.12,100-140.58,9.48-34.14,18.43-68,33.68-100.12,14.89-31.39,33.21-61,51.8-90.26,8.18-12.88,15.92-28.55,30.43-35.27,14.75-6.84,33.07-6.26,49-6.45,36.28-.44,72.43,4,107.81,11.94,34.74,7.79,68.71,18.8,101.82,31.86,31.6,12.46,62.72,26.77,91.11,45.55,106.21,70.3,142.11,200.74,168.35,318.1a2260.13,2260.13,0,0,1,53.68,436.59c1.82,73,.84,146.35-6,219.07a924.51,924.51,0,0,1-44.73,210.88c-21.84,64.43-47.43,129.13-50.37,197.91-.77,18.08,1.3,36.64-2.17,54.52-2.92,15.06-10.46,28.58-20.75,39.85-20.3,22.25-48.8,36.3-77.77,43.34-60.75,14.77-125.3.26-183.6-18.12a1157.9,1157.9,0,0,1-160.74-63.8c-96.92-47.48-192-116.62-230.1-221.86-23.85-65.85-23.22-137-20.11-206,3.38-75,7.27-150,10.07-225q8.47-226.38,9.86-452.95.35-55.85.26-111.67c0-9.66-15-9.67-15,0q.33,233.72-6.8,467.36-3.58,116.41-9,232.75c-3.39,72.65-10.83,146.51-2.06,219,7.42,61.32,28.67,118.62,66.47,167.7,33.88,44,77.63,79.36,124.68,108.43,48.92,30.23,101.65,53.92,155.23,74.56,57.87,22.29,117.69,43.21,179.8,49.06,59.24,5.58,126.23-5.8,168.6-51.25,10.19-10.93,18.4-23.73,23-38,5.55-17.16,4.86-35.42,4.86-53.21,0-35.16,6.22-69.57,15.56-103.37,19.25-69.7,48.1-136,63-207,15.17-72.09,21-145.85,22.81-219.39a2277.77,2277.77,0,0,0-33.65-450.15c-12-68.62-26.08-137.54-46.54-204.19-17.74-57.76-41.81-114.48-79.56-162.15-41.62-52.55-98.87-84.74-160.22-109.31-67.25-26.94-139-45.85-211.82-46-16.86,0-34.85-.14-51.25,4.29-15.42,4.17-26.35,13.8-35.34,26.67a849.74,849.74,0,0,0-53.19,87.86c-16.9,31.87-29.32,65-38.86,99.76-9.12,33.18-17.17,67.31-34.41,97.43-14.2,24.81-34.51,47.1-61.85,57.24-9,3.33-5.09,17.83,4,14.46Z"/><path class="cls-2" d="M778.94,148.59a284.94,284.94,0,0,1,180,24.07c18.94,9.41,36.4,21.23,53.47,33.65,19.79,14.39,39.27,29.29,60.78,41.06,8.48,4.63,16-8.32,7.57-13-39.06-21.37-71.5-52.85-111.21-73.18a301.67,301.67,0,0,0-123.11-32.58A297.54,297.54,0,0,0,775,134.12c-9.46,1.87-5.46,16.33,4,14.47Z"/><path class="cls-3" d="M761.68,121.91A266.63,266.63,0,0,1,911.85,82c13.32.5,26.9,1.75,39.43,6.62,12,4.64,22.27,12.77,31.81,21.16,19.24,17,39.82,34.68,52.68,57.19,8,14,12.81,29.55,18.26,44.62l17.25,47.74c3.26,9,17.76,5.13,14.47-4q-8.3-23-16.6-45.91c-5.17-14.31-9.91-28.91-16.54-42.63-12.22-25.32-33.37-44.51-53.86-63.1-10-9.08-20.45-18.13-32.42-24.55-12.83-6.88-26.83-9.93-41.22-11.31-27.67-2.65-56-.44-83.1,5.46A280.24,280.24,0,0,0,754.11,109c-8.18,5.08-.66,18.06,7.57,13Z"/><path class="cls-4" d="M760.86,114.32a522.38,522.38,0,0,0,57.31,37.54c5.25,3,13.44-2.07,11-8.47l-8.94-23.53c-2.42-6.38-4.17-14.77-9.06-19.78C806,94.79,798,94.1,791,93.47a92,92,0,0,0-24,1.25c-5.79,1-6.91,8.81-3.31,12.54,11,11.43,28.56,15.64,43.45,9.76,6.5-2.57,7.7-12.34,0-14.46-17.77-4.88-36,5.12-42.57,22-1.48,3.81,1.63,8.2,5.24,9.23,4.23,1.21,7.77-1.48,9.23-5.24,3.61-9.29,14.79-14.09,24.11-11.53V102.56c-10.15,4-21.19,2-28.85-5.91L771,109.19a76.42,76.42,0,0,1,18.13-.87c4.15.29,10.46,0,12.36,4.23,5,11.29,8.84,23.28,13.23,34.83l11-8.47a525.31,525.31,0,0,1-57.31-37.54c-3.26-2.45-8.36-.49-10.27,2.69-2.28,3.82-.52,7.84,2.7,10.26Z"/><path class="cls-5" d="M1120.76,336.67c19.32.54,32.08,19.14,36.92,36.09,7.22,25.24,1,52.5,3.78,78.31.44,4,3.14,7.5,7.5,7.5,3.72,0,7.94-3.45,7.5-7.5-3.1-28.92,4.27-59.75-6.07-87.67-8-21.54-25.25-41-49.63-41.73-9.66-.27-9.65,14.73,0,15Z"/><path class="cls-6" d="M1138.32,398.52l41.2,124.18c13.47,40.61,26.66,80.75,31.54,123.46,2.41,21.2,3.86,42.5,6.61,63.67s6.84,42.06,11.66,62.83C1239.15,815,1250.62,857,1261.44,899q18.42,71.65,36.85,143.29c2.4,9.34,16.87,5.38,14.46-4-21.82-84.84-44.46-169.51-65.35-254.58-5.08-20.67-9.72-41.47-13.06-62.49s-4.92-42.32-7-63.52-5-42.34-10-63.09-11.65-40.8-18.33-60.93q-23.09-69.59-46.18-139.18c-3-9.11-17.52-5.21-14.46,4Z"/><path class="cls-7" d="M433.92,737.43C448.76,809.27,464.39,881,478.33,953c7,36.25,11.12,72.33,10.84,109.29-.28,36.62-2.38,73.16-1.46,109.8a1052,1052,0,0,0,10.37,122.29c.57,4,5.68,6.23,9.22,5.24,4.31-1.21,5.82-5.18,5.24-9.22a1016,1016,0,0,1-9.54-108.5c-1.26-36.6.37-73.09,1-109.68a559.24,559.24,0,0,0-8.73-109.75c-6.46-35.94-14.41-71.63-21.79-107.39L448.38,733.44c-1.95-9.44-16.41-5.44-14.46,4Z"/><path class="cls-8" d="M439,877c31.13,99.67,11,205.13,14.94,307.39,1.12,28.91,4.18,57.79,10.46,86.06,2.09,9.42,16.55,5.44,14.46-4-22.58-101.67-.61-206.13-9.49-308.86C466.92,929,462.08,900.5,453.49,873c-2.86-9.19-17.35-5.27-14.46,4Z"/><path class="cls-9" d="M594.87,602.47a472.71,472.71,0,0,1,38.49-97.59c12.37-23.28,29.45-58.83,60.89-56.63,33.15,2.31,50.42,36.91,63.22,62.94,15.44,31.4,30.39,63.56,37.7,98a177.63,177.63,0,0,1,3.64,51C797.4,678,792.67,695.44,787,712.38c-10.4,31.16-22.19,63.51-40.83,90.8-16.63,24.36-42.52,45.52-72.93,48.11-29.8,2.53-55-15.28-70.45-39.68-17.84-28.23-24-63.4-29.38-95.87C568,682.91,568.59,648,591,621.29a96.54,96.54,0,0,1,16.49-15.64c3.28-2.43,4.85-6.47,2.69-10.26-1.84-3.23-7-5.09-10.26-2.69-13.66,10.1-25.26,22.81-33,38-8.48,16.72-11.78,35.28-11.54,53.93.25,19.11,3.83,38.07,7.6,56.75,3.7,18.37,7.89,36.78,15,54.18,12.39,30.26,34.63,58.8,67.36,68,32.52,9.19,66.9-4.47,91.12-26.34,26.57-24,41.36-58,54-90.77,13.83-35.88,26.17-72.74,23.4-111.74-2.73-38.26-16.7-74.39-32.73-108.85-14.42-31-29.43-69.43-61.9-85.67-15.44-7.72-33-9.65-49-2.59-14.64,6.45-25.37,19.24-34,32.31-20.41,31-35.84,66.21-47.61,101.33q-4.51,13.45-8.21,27.16c-2.54,9.32,11.93,13.3,14.46,4Z"/><path class="cls-10" d="M699.13,625.93c-5.11-6.74,1.37-13.82,6.22-18.58.91-.89,3.57-2.59,4.15-3.68l.36-.23c1.11-.55.47-1.07-2-1.57,0,0,.91,3.32.8,2.88a60.71,60.71,0,0,1,1.75,12.58,68.78,68.78,0,0,1-3.93,25.39,61.35,61.35,0,0,1-5.11,10.81c-1.15,2-4.79,8.89-7.84,8.45-4.81-.71-3.43-13.3-2.76-16.22a39.86,39.86,0,0,1,11.33-19.35,44.87,44.87,0,0,1,8.56-6.59c1.44-.85,2.27-1.41,2.95-1.2,1.3.4,2.64,2.74,3.34,3.84,3.67,5.75,3.73,13.2,3.26,19.77-.65,9.25-3.13,18.35-5.12,27.37q-3.93,17.8-7.84,35.61l7.23-5.5c-15.37-.48-25.94-16.49-25.51-30.87.25-8.32,3.64-16.17,8.31-22.94s12.08-14.46,19.91-17.8l-3.78,1c-1.14.15-.82-2.17-.41.81a26.69,26.69,0,0,1,.12,5.58,27.92,27.92,0,0,1-2.84,10.27,30,30,0,0,1-15.74,14.65c-3.76,1.59-4.51,7.06-2.69,10.26,2.21,3.89,6.55,4.26,10.26,2.69,12.47-5.28,22-17.19,25-30.36,1.51-6.7,1.94-14.6-1-21-3.46-7.64-11.34-9.94-18.59-5.87-25,14-41.71,46.64-28.83,73.91,6.62,14,20.11,24.16,35.79,24.64a7.59,7.59,0,0,0,7.23-5.51q5.09-23.1,10.17-46.2c2.5-11.36,4.55-23,2.76-34.6-1.54-10-8.61-24.52-20.34-25.18-5.72-.32-11.13,3.31-15.57,6.54a63.22,63.22,0,0,0-14.29,14.36c-6.7,9.38-10.39,21.06-9,32.59,1.53,12.43,11.44,24.91,25.17,18.54,11.09-5.14,17.22-19.12,20.82-30.09a82.15,82.15,0,0,0,2.66-39.59c-1.15-6.64-3-14.56-10.26-16.87-7-2.22-13.27,2.41-18,6.94-9.87,9.39-19.62,24.8-9.71,37.86,2.46,3.26,6.44,4.87,10.26,2.69,3.2-1.82,5.13-7,2.69-10.26Z"/><path class="cls-11" d="M1073.54,517.76c3-3.49,7.38.09,10.18,2.62,4.88,4.42,7.58,10,10.32,15.85a255.34,255.34,0,0,1,14.79,40.84,279.85,279.85,0,0,1-8.52,171.57,257.91,257.91,0,0,1-18.82,39.14c-7,11.92-14.93,24.77-26.45,32.87-13.34,9.37-28.51,8.07-43.47,3.65-16.41-4.83-32.49-11.31-48.28-17.86-15-6.22-30.35-12.59-44.43-20.7-5.84-3.37-11.67-7.43-15.49-13.12-4-5.92-5.52-13-6-20.08-2.22-33.16,6.5-67.2,18-98a421.18,421.18,0,0,1,41.77-82,434.83,434.83,0,0,1,90.43-100.21c4.78-3.86,10.26-8.43,16.76-6.19s10.62,8.36,12.46,14.71c2.17,7.49,2,15.36,2,23.08-.08,9.66,14.92,9.67,15,0,.15-17.45-1.19-36.5-16.49-47.71-6.35-4.65-14.47-6.87-22.24-5.09-8.27,1.9-14.87,7.95-21.23,13.2a446.6,446.6,0,0,0-70.11,73.09,440.06,440.06,0,0,0-51.5,85.94c-15.49,34.2-27.1,70.46-29.58,108.11-1.1,16.64-1.49,35.74,8.66,49.94,9.92,13.87,26.2,20.82,41.2,27.74q26.12,12,53.15,22c17.53,6.47,36.2,13.8,55.22,11,16.64-2.42,29.74-13.34,39.79-26.24s18.06-27.16,25-41.79a294.48,294.48,0,0,0,19.85-192.65,279.27,279.27,0,0,0-15.53-46.36c-5.8-13.4-13.37-29.1-28.82-33.32a17.44,17.44,0,0,0-18.18,5.26c-6.25,7.3,4.32,18,10.61,10.61Z"/><path class="cls-12" d="M986.42,602.78a96.24,96.24,0,0,1,5.94-10.21,27,27,0,0,1,4.18-4.87c1.54-1.37,1.73-1.11,1.31-1.11,2.71,0,5.68,3,7.06,5.13,2.15,3.26,2.44,7.45,3.18,11.18s2.09,7.61,2.61,11.48c.56,4.16,0,8.41,0,12.58-.07,8.68,1.5,17.23,2.21,25.85.27,3.21,1.22,7-1.28,9.37-2.21,2.12-5.88,5.12-8.89,5.59s-3.76-1.48-4.86-4.15c-1.57-3.84-2.85-7.79-5-11.38-3.87-6.55-10.3-11.25-12.27-18.86-1.89-7.33-.68-15.38.25-22.76l-14.73,2c2.37,9.46,3.79,23.11,15,26.08,10,2.64,22.76-.29,30.67-6.55l-12.53-7.3a100.84,100.84,0,0,0-2.52,14.43c-.12,1.2-.22,2.4-.29,3.6q-.93,4.9,4-1.23c-.39-1-5.48-2.47-6.48-2.81-8.76-3-16.74-.23-21.5,7.67-5,8.38-5.53,16.92-1.38,25.7,3.71,7.86,8.71,16.09,16.72,20.12,14.34,7.21,33.14,1.67,42.85-10.63a26.18,26.18,0,0,0,4.77-24.42c-1.38-4.64-3.44-8.95-4.3-13.75a47.87,47.87,0,0,1-.17-14c.47-4-3.78-7.5-7.5-7.5-4.45,0-7,3.46-7.5,7.5a57.51,57.51,0,0,0,1.75,22.38c1.7,6,6,12.2,2.72,18.34-4.64,8.82-19.55,14.16-27.87,7.47-2.52-2-4.1-5-5.67-7.73s-4-6.26-3.87-9.7c.06-1.74,1.66-6.83,3.46-7.73,1.52-.77,5,1.48,6.4,2.09,6.23,2.73,13.71,3.55,17.13-3.72,1.45-3.08,1.26-6.48,1.53-9.81a74.66,74.66,0,0,1,2.14-12.24c2-7.8-6.91-11.76-12.53-7.3-1.92,1.52-4.64,2.07-7,2.4-1.74.24-7.65,1.19-9,.35-1.08-.65-1.44-3.17-1.76-4.32-1-3.75-1.9-7.56-2.85-11.34-2.22-8.86-13.75-5.83-14.73,2-1.05,8.39-1.8,16.81-.07,25.17,1.86,9.06,7.58,14.62,12.72,21.83,4.82,6.74,5.41,15.94,12,21.44,7,5.85,16.7,4.26,23.9-.37s13.23-9.94,13.73-18.92-1.82-18.23-2.34-27.25c-.54-9.53.42-18.41-1.92-27.8-2.11-8.43-2.7-17-8.48-23.88-5.44-6.53-15.8-12-24.12-7.72s-13.52,14-17.81,22.09c-4.54,8.51,8.4,16.1,12.95,7.57Z"/><path class="cls-13" d="M700.51,1425.22c1.7-9.67,8.75-17.1,15.92-23.35a77.5,77.5,0,0,1,24.44-14.26c9-3.27,5.12-17.77-4-14.47a97.6,97.6,0,0,0-31.06,18.12c-9,7.81-17.66,17.94-19.78,30-1.65,9.44,12.8,13.5,14.47,4Z"/><path class="cls-14" d="M711.19,1406.53c-.38,12.49-.56,25.57,3.4,37.58,4.2,12.78,12.79,22.23,24.37,28.86,12.22,7,25.74,12.29,38.66,17.86,13.65,5.89,27.44,11.49,41.6,16.05,26.86,8.66,55.59,13.74,83.84,10.58,28.7-3.2,53.53-15.07,76-32.86,20.89-16.51,41.37-36.11,54.33-59.63,13.21-24,18.35-51,23.54-77.56,2.63-13.44,5.32-26.89,9.22-40,4.16-14,9.55-27.54,14.83-41.13,11.07-28.55,19.56-57.41,23.47-87.85a328.17,328.17,0,0,0,2.51-51.2c-.48-16.77-1.9-33.56-.81-50.34s5.18-33,10.34-48.86c2.5-7.68,5.27-15.27,8.14-22.82,1.54-4.06,3-8.17,4.7-12.17a20.86,20.86,0,0,1,1.84-3.77,6.67,6.67,0,0,1,1.49-1.9c1.08-.7.64-.92-1.35-.65,3.71,1.7,8,1,10.27-2.69,1.92-3.21,1-8.58-2.69-10.26-14.87-6.83-21.78,9.45-26.05,20.49-5.15,13.31-10.16,26.71-14.08,40.45a199.64,199.64,0,0,0-7.72,44.11c-.79,14.85.27,29.7.79,44.54a322.3,322.3,0,0,1-8.72,88.46c-7.14,29.06-19.86,56-29.15,84.35-8.27,25.23-11.63,51.58-17.74,77.33-6.26,26.37-16.48,50-34.92,70.14-17.78,19.47-38.92,38.09-63,49.23-25.15,11.63-54.41,12.71-81.38,8.07-31.63-5.44-61.34-18.18-90.42-31.3-12.3-5.55-27.41-10.68-34.55-23-6.9-11.88-6.17-26.84-5.77-40.07.3-9.66-14.7-9.65-15,0Z"/><path class="cls-15" d="M1100.07,974.86l17.21,11.58c4.88,3.29,11.21,6.32,15.07,10.85s2.84,12.53,3,17.9c.26,7.12.22,14.23,0,21.34h15a203.21,203.21,0,0,0-.64-23.15c-.63-7.23-1.12-15.07-3.23-22-2.18-7.2-7.24-11.18-13.19-15.28l-19.74-13.54-3.79,14c6.23-.33,16.38-1.36,22,2.08,2,1.26,3,3.65,4.34,5.57a30.07,30.07,0,0,0,7.11,7.56l3.79-14a61.78,61.78,0,0,1-30.46-10.49c-8.07-5.35-15.59,7.63-7.57,12.95a77.15,77.15,0,0,0,38,12.54c8.22.53,9.1-10,3.78-14-2.49-1.88-3.91-5.78-5.87-8.21a20.51,20.51,0,0,0-8.79-6.38c-8.06-3.09-17.85-3.11-26.33-2.67a7.56,7.56,0,0,0-3.79,14l16.46,11.29c5,3.43,9.08,5.47,10.33,11.72,2.48,12.43,2.93,25.42,2.59,38.06-.26,9.66,14.64,9.63,15,0,.31-8.41.29-16.81-.13-25.21-.37-7.55-.49-15.61-5.09-22-4.31-6-11.15-9.71-17.14-13.74l-20.34-13.69c-8-5.41-15.55,7.58-7.57,13Z"/><path class="cls-16" d="M1316.36,1009.17c3.53-25.35,6.8-51,12.05-76.09,2-9.69,5.17-18.9,14.23-24,8.87-5,19.11-7,27.52-12.95,7.81-5.54.33-18.56-7.57-13-9,6.38-20.18,8.17-29.41,14.09-9.81,6.29-15.3,16.25-18.18,27.32-3.24,12.48-4.76,25.55-6.79,38.28q-3.37,21.13-6.31,42.36c-.56,4,1,8,5.24,9.22,3.5,1,8.66-1.23,9.22-5.24Z"/><path class="cls-17" d="M1293.28,500.09c6.12-2.51,14.35,3.78,19.52,6.75,6.1,3.51,12.33,7.54,16.64,13.24,4.58,6,6,13.54,6.5,20.95.26,4,.43,8.1.35,12.13,0,2.48,0,7.21-2.81,8.41-.79.34-.5.17-2-.88a48.48,48.48,0,0,1-4-3.31,84.85,84.85,0,0,1-7.52-7.65,82.68,82.68,0,0,1-19.64-59.93c.68-9.63-14.32-9.59-15,0-2.14,30.48,11.17,62,35.07,81.16,6.63,5.32,14,7.94,21.73,2.82,7.48-5,9.14-13.95,9.09-22.34-.1-16.82-2.09-33.48-14.73-45.78-6.07-5.92-13.44-10.37-20.86-14.36-8-4.28-17.25-9.42-26.4-5.67-3.73,1.52-6.42,5-5.24,9.22,1,3.54,5.44,6.79,9.23,5.24Z"/><path class="cls-18" d="M1328.22,587.64c6.34.34,9.08,13.57,10.54,18.07q5.13,15.81,9.11,32a537.39,537.39,0,0,1,11.7,64.2c5.33,43.7,6.23,87.82,5.56,131.79-.39,25.16-1.3,50.3-2.24,75.43-.36,9.66,14.64,9.64,15,0,3.5-93.62,6.83-189.26-16.91-280.77-3.14-12.11-6.46-24.42-11-36.09-3.87-9.9-10.27-19-21.75-19.6-9.65-.51-9.62,14.49,0,15Z"/><path class="cls-19" d="M1344.22,575a52.33,52.33,0,0,1-17.78-11.91c-6.83-6.84-17.44,3.76-10.61,10.61a70.47,70.47,0,0,0,24.4,15.77c3.77,1.48,8.24-1.63,9.23-5.24,1.17-4.26-1.46-7.73-5.24-9.23Z"/><path class="cls-20" d="M1342.44,588.11A44.72,44.72,0,0,1,1323.21,561c-2.35-9.36-16.82-5.39-14.46,4a60.22,60.22,0,0,0,26.11,36c8.15,5.24,15.68-7.74,7.58-12.95Z"/><path class="cls-21" d="M1300.37,480.79a139,139,0,0,1,15.25-79c6-11.3,13.46-22.18,22.72-31.07,4.75-4.56,10.4-8.46,17.25-8.33,7.1.14,13.74,4.14,19.21,8.36,20.21,15.59,35.9,39.13,48,61.24,12.51,22.79,21.68,47.2,28.8,72.17,14.75,51.69,21.1,105.41,27.38,158.65,7,59.09,12.42,118.58,11,178.14-1.53,66.4-12.13,133.16-39.47,194.1-2.21,4.91.29,11.45,6.47,11.29,43-1.13,91.07,13.89,111.6,54.85,23.55,47-3.71,97.56-40.07,128.61-22.07,18.85-47.92,32.71-73.3,46.5-7.71,4.19-2.3,15.5,5.78,13.71l31.25-6.93-8.47-3.45a40.71,40.71,0,0,0,19.9,16.12c5.9,2.36,12.22-5.91,8.47-11-8.29-11.3-18-22.83-30.74-29.26-8.52-4.29-31.09-9.49-34.67,3.84s6.26,26.15,17.87,31.37c13.35,6,28.43,3.64,42.39,7.07,24.38,6,44.84,23.39,56.64,45.31a83.83,83.83,0,0,1,10.14,35.33c.28,6,.29,12.4-1.44,18.16-2.25,7.48-9.19,10.37-15.86,13.21a176.28,176.28,0,0,1-105.73,9.64,7.61,7.61,0,0,0-9.49,7.24c-.25,14.05,11.59,23.45,24.36,26.39,16.48,3.79,32.93-6.08,49-1.85,7.7,2,13.43,7.94,18.48,13.77,6.13,7.08,11.87,14.59,17.51,22.06,10.5,13.89,20.62,28.57,27.25,44.76,10.38,25.31,11.56,57.72-7.38,79.62-23.83,27.55-63.63,14.59-93.06,5.24A586.87,586.87,0,0,1,1363,1566c-6.21-3.56-11.91,2.3-11,8.47l8.24,57.25c1.37,9.51,15.82,5.47,14.46-4l-8.24-57.24-11,8.47a606.34,606.34,0,0,0,108.23,48.84c32.33,10.91,74.43,26,105.76,4.53,24.52-16.78,34-48.91,30.32-77.39-4.68-36.4-28.53-66.58-50.72-94.32-6.06-7.58-12.49-15.24-21-20.1-9.19-5.23-19.33-5.84-29.61-4.47-9.07,1.2-18.69,4.43-27.87,2.66-6.32-1.22-14.27-4.68-14.14-12.11l-9.49,7.23a194.71,194.71,0,0,0,80.41.57,185.71,185.71,0,0,0,38.92-12.62c11.19-5,19.3-12.59,21.55-25.08,7.82-43.56-20.34-89.55-59.76-107.46-11.55-5.25-23.39-7.78-36-8.67-7.08-.5-14.79-.53-21.34-3.63-5.41-2.55-10.76-8.17-9.12-14.54l-5.24,5.24c17.85-7.06,33.63,11.82,43,24.62l8.47-11a23.42,23.42,0,0,1-10.93-9.22,7.79,7.79,0,0,0-8.47-3.45l-31.26,6.93,5.78,13.71c47.85-26,98.86-55.23,120.79-108,10.46-25.15,12-53.42,1.84-79-9.19-23.07-26.54-41.55-48.3-53.32-24.38-13.2-52.58-18.36-80.13-17.64l6.48,11.28c52.73-117.5,45.64-249.29,31.14-374.17-6.63-57.07-13.09-114.86-29.13-170.2-7.66-26.42-17.66-52.37-31.17-76.38-13.21-23.48-30.37-48-52.2-64.23-13.33-9.91-30.45-14.17-45.3-4.81-12.69,8-22.52,21.66-30.18,34.29a152.89,152.89,0,0,0-21.32,93.71c1,9.51,16,9.61,15,0Z"/><path class="cls-22" d="M1517.05,1130h1.75a7.74,7.74,0,0,0,5.3-2.2,8.36,8.36,0,0,0,2.2-5.3,7.6,7.6,0,0,0-2.2-5.3,7.78,7.78,0,0,0-5.3-2.2h-1.75a7.74,7.74,0,0,0-5.3,2.2,5.51,5.51,0,0,0-1.55,2.41,5.64,5.64,0,0,0-.65,2.89,7.55,7.55,0,0,0,2.2,5.3,7.77,7.77,0,0,0,5.3,2.2Z"/><path class="cls-23" d="M1518.8,1170.23c9.65,0,9.67-15,0-15s-9.67,15,0,15Z"/><path class="cls-24" d="M1532.87,1344.47a23.62,23.62,0,0,0-19.75-5.1c-2.5.45-4.59,2.9-5.24,5.24-.76,2.78.19,5.18,1.93,7.3a27.77,27.77,0,0,0,10.46,7.84c3.73,1.58,8,1.12,10.26-2.69,1.84-3.14,1.07-8.67-2.69-10.26a16.17,16.17,0,0,1-7.42-5.5l-3.31,12.54c-1.27.22.84,0,1.11,0,.93.08,1,.06.34,0a8.92,8.92,0,0,1,1.14.25,11.16,11.16,0,0,1,1.13.32c-.46-.23-.45-.24,0,0,.27.12,2.17,1.33,1.42.73,3.17,2.53,7.52,3.09,10.61,0,2.61-2.61,3.18-8.06,0-10.6Z"/><path class="cls-25" d="M1524.26,1391.54l-3.31,5.86-5.78-.75,7.66,4.26c6.62,3.67,13.88-3.67,10.27-10.27-3.75-6.84-11.79-11.43-19.65-10.46-4,.49-7.5,3.09-7.5,7.5,0,3.67,3.46,8,7.5,7.5a11.6,11.6,0,0,1,3-.08c-.84-.12-.24,0,.21.15l.72.23c-.52-.25-.54-.25-.07,0a13,13,0,0,1,1.3.76c1,.66-.58-.6.24.23.09.1,1,1.09.66.64s.63,1.12.63,1.13L1530.4,1388c-4-2.22-9-6.27-13.72-4.9-5.62,1.63-7.72,7.17-6.88,12.48.63,4,5.63,6.23,9.23,5.24,4.26-1.17,5.87-5.21,5.23-9.23Z"/><path class="cls-26" d="M1545.24,1528.83l-9.87-5.09-5.78,13.71-2.74-2.12a3.1,3.1,0,0,1,.6-4.26c.19-1.5.94-2.3,2.25-2.39a3.38,3.38,0,0,1,3.28.21,7.5,7.5,0,1,0-7.57,12.95,10.57,10.57,0,0,0,15-4.7c2.62-6-1-12.06-6.82-14.16-3.47-1.25-7.56,1.13-8.85,4.34s-.31,7.63,3.07,9.37l9.86,5.09a7.69,7.69,0,0,0,10.27-2.69c2-3.36.92-8.4-2.69-10.26Z"/><path class="cls-27" d="M1533,1566.51a20.08,20.08,0,0,0-14.68,2.22,7.65,7.65,0,0,0-3.45,8.47,17.43,17.43,0,0,0,16.17,12.58,7.56,7.56,0,0,0,7.5-7.5,7.65,7.65,0,0,0-7.5-7.5c-1.4-.07,1.11.36.23,0-.3-.1-.66-.2-1-.27-.78-.19,1.22.8.17,0-.26-.19-1.21-1.08-.5-.28s0-.09-.2-.26c-1.06-1.09.14-.16,0,.14a6.45,6.45,0,0,0-.52-.87c.36,1,.45,1.16.26.62a6.14,6.14,0,0,1-.22-.73l-3.45,8.47c.33-.2.66-.39,1-.56l-.73.29a6.07,6.07,0,0,1,1.95-.54c.56-.1.38-.08-.56.08a8.42,8.42,0,0,1,.87,0l.87,0c-1-.16-1.13-.16-.28,0,3.82.81,8.29-1.13,9.22-5.24.86-3.77-1.13-8.35-5.24-9.22Z"/><path class="cls-28" d="M1522.05,1153.74a17.41,17.41,0,0,0-11,9.15c-2.52,5.22-2.34,10.38-.11,15.63,1.43,3.39,6.33,4.41,9.36,3.07,3.69-1.62,4.91-5,4.35-8.85-.74-5-4.65-8.34-9.11-10.07-3.77-1.47-8.23,1.61-9.22,5.23-1.17,4.25,1.44,7.76,5.23,9.23-.36-.14-.72-.4-1-.53s-.55-1.46-.32.13l13.71-5.78c.44,1.06,0-.09.11-.18.08.75.12.84.09.29a5.3,5.3,0,0,1,0-.69c.38-1.11-.35,1.07.07,0,.11-.31.73-1.59.12-.48a10.24,10.24,0,0,1,.73-1.19c-.52.69-.22.14.17-.07,1.18-.62-.41,0,.42-.26,1.2-.31-1.67.46.45-.12a7.5,7.5,0,1,0-4-14.46Z"/><path class="cls-29" d="M1511.8,1124.92l8.73.32a7.55,7.55,0,0,0,7.5-7.5,7.67,7.67,0,0,0-7.5-7.5l-8.73-.32a7.55,7.55,0,0,0-7.5,7.5,7.65,7.65,0,0,0,7.5,7.5Z"/><path class="cls-30" d="M1270.59,304.28A443.93,443.93,0,0,0,1199,193.35c-6.39-7.27-17,3.38-10.61,10.61a431.21,431.21,0,0,1,69.23,107.89c1.67,3.73,7,4.54,10.26,2.7,3.83-2.18,4.34-6.59,2.69-10.27Z"/><path class="cls-31" d="M1380.66,219.45a935.29,935.29,0,0,1,20-100.46c2.4-9.35-12.07-13.34-14.47-4a936,936,0,0,0-20,100.47c-.57,4,1,8,5.24,9.22,3.51,1,8.66-1.23,9.23-5.24Z"/><path class="cls-32" d="M1551.58,344.91a478.68,478.68,0,0,0,46-35.86c7.25-6.4-3.39-17-10.6-10.61A447.36,447.36,0,0,1,1544,332c-7.91,5.43-.41,18.43,7.57,13Z"/></svg>