<?xml version="1.0" encoding="utf-8"?>
<!-- Generator: Adobe Illustrator 23.0.1, SVG Export Plug-In . SVG Version: 6.00 Build 0)  -->
<svg version="1.1" id="Слой_1" xmlns="http://www.w3.org/2000/svg" xmlns:xlink="http://www.w3.org/1999/xlink" x="0px" y="0px"
	 viewBox="0 0 48 48" style="enable-background:new 0 0 48 48;" xml:space="preserve">
<style type="text/css">
	.st0{display:none;fill:#FFFFFF;}
	.st1{fill-rule:evenodd;clip-rule:evenodd;fill:#FFFFFF;}
	.st2{fill-rule:evenodd;clip-rule:evenodd;}
</style>
<path class="st0" d="M0,24C0,10.7,10.7,0,24,0s24,10.7,24,24S37.3,48,24,48S0,37.3,0,24z"/>
<path class="st1" d="M0,24C0,10.7,10.7,0,24,0s24,10.7,24,24S37.3,48,24,48S0,37.3,0,24z"/>
<path class="st2" d="M24,0c-6.5,0-7.3,0-9.9,0.1c-2.6,0.1-4.3,0.5-5.8,1.1C6.7,1.9,5.4,2.7,4,4C2.7,5.4,1.9,6.7,1.3,8.3
	c-0.6,1.5-1,3.3-1.1,5.8C0,16.7,0,17.5,0,24s0,7.3,0.1,9.9c0.1,2.6,0.5,4.3,1.1,5.8C1.9,41.3,2.7,42.6,4,44c1.3,1.3,2.7,2.2,4.3,2.8
	c1.5,0.6,3.3,1,5.8,1.1C16.7,48,17.5,48,24,48c6.5,0,7.3,0,9.9-0.1c2.6-0.1,4.3-0.5,5.8-1.1c1.6-0.6,2.9-1.4,4.2-2.8
	c1.3-1.3,2.2-2.7,2.8-4.3c0.6-1.5,1-3.3,1.1-5.8C48,31.3,48,30.5,48,24s0-7.3-0.1-9.9c-0.1-2.6-0.5-4.3-1.1-5.8
	C46.1,6.7,45.3,5.4,44,4c-1.3-1.3-2.7-2.2-4.2-2.8c-1.5-0.6-3.3-1-5.8-1.1C31.3,0,30.5,0,24,0L24,0z M23.2,4.3L23.2,4.3l0.8,0
	c6.4,0,7.2,0,9.7,0.1C36,4.6,37.3,5,38.2,5.3c1.1,0.4,1.9,1,2.8,1.8c0.8,0.8,1.4,1.6,1.8,2.8c0.3,0.8,0.7,2.1,0.8,4.5
	c0.1,2.5,0.1,3.3,0.1,9.7c0,6.4,0,7.2-0.1,9.7c-0.1,2.3-0.5,3.6-0.8,4.5c-0.4,1.1-1,1.9-1.8,2.8c-0.8,0.8-1.6,1.4-2.8,1.8
	c-0.8,0.3-2.1,0.7-4.5,0.8c-2.5,0.1-3.3,0.1-9.7,0.1c-6.4,0-7.2,0-9.7-0.1c-2.3-0.1-3.6-0.5-4.5-0.8c-1.1-0.4-1.9-1-2.8-1.8
	c-0.8-0.8-1.4-1.6-1.8-2.8C5,37.3,4.6,36,4.5,33.7c-0.1-2.5-0.1-3.3-0.1-9.7c0-6.4,0-7.2,0.1-9.7C4.6,12,5,10.7,5.3,9.8
	c0.4-1.1,1-1.9,1.8-2.8c0.8-0.8,1.6-1.4,2.8-1.8C10.7,5,12,4.6,14.3,4.5c2.2-0.1,3.1-0.1,7.5-0.1v0C22.3,4.3,22.7,4.3,23.2,4.3z
	 M33.9,11.2c0-1.6,1.3-2.9,2.9-2.9v0c1.6,0,2.9,1.3,2.9,2.9s-1.3,2.9-2.9,2.9S33.9,12.8,33.9,11.2z M24,11.7
	c-6.8,0-12.3,5.5-12.3,12.3c0,6.8,5.5,12.3,12.3,12.3S36.3,30.8,36.3,24S30.8,11.7,24,11.7z M32,24c0-4.4-3.6-8-8-8
	c-4.4,0-8,3.6-8,8c0,4.4,3.6,8,8,8C28.4,32,32,28.4,32,24z"/>
</svg>
